G04 EAGLE Gerber RS-274X export*
G75*
%MOMM*%
%FSLAX34Y34*%
%LPD*%
%IN*%
%IPPOS*%
%AMOC8*
5,1,8,0,0,1.08239X$1,22.5*%
G01*
%ADD10C,0.254000*%


D10*
X0Y0D02*
X345000Y0D01*
X345000Y75000D01*
X344538Y76900D01*
X343588Y79874D01*
X342381Y82755D01*
X340929Y85519D01*
X339240Y88146D01*
X337330Y90616D01*
X335211Y92910D01*
X332901Y95010D01*
X330416Y96902D01*
X327776Y98569D01*
X325000Y100000D01*
X319948Y105609D01*
X301153Y128920D01*
X284461Y153780D01*
X270000Y180000D01*
X269620Y180597D01*
X264118Y188401D01*
X257956Y195696D01*
X251183Y202426D01*
X243848Y208539D01*
X236009Y213991D01*
X227725Y218738D01*
X219058Y222746D01*
X210075Y225982D01*
X200844Y228424D01*
X191435Y230051D01*
X181920Y230853D01*
X172372Y230822D01*
X162863Y229959D01*
X153465Y228270D01*
X144250Y225769D01*
X135288Y222475D01*
X126647Y218411D01*
X118394Y213610D01*
X110590Y208108D01*
X103295Y201947D01*
X96565Y195174D01*
X90451Y187839D01*
X85000Y180000D01*
X78332Y166424D01*
X69896Y152367D01*
X60268Y139098D01*
X49520Y126719D01*
X37734Y115324D01*
X25000Y105000D01*
X23802Y104559D01*
X20769Y103231D01*
X17864Y101643D01*
X15108Y99808D01*
X12523Y97740D01*
X10128Y95454D01*
X7941Y92968D01*
X5979Y90302D01*
X4257Y87474D01*
X2788Y84507D01*
X1583Y81423D01*
X651Y78246D01*
X0Y75000D01*
X0Y0D01*
X218503Y113052D02*
X218503Y114954D01*
X218425Y116854D01*
X218268Y118749D01*
X218032Y120636D01*
X217719Y122512D01*
X217329Y124373D01*
X216862Y126217D01*
X216320Y128040D01*
X215702Y129838D01*
X215011Y131610D01*
X214247Y133352D01*
X213412Y135060D01*
X212506Y136733D01*
X211533Y138366D01*
X210493Y139959D01*
X209388Y141506D01*
X208220Y143007D01*
X206990Y144458D01*
X205702Y145857D01*
X204358Y147202D01*
X202959Y148490D01*
X201507Y149719D01*
X200007Y150887D01*
X198459Y151992D01*
X196867Y153033D01*
X195233Y154006D01*
X193560Y154911D01*
X191852Y155746D01*
X190110Y156510D01*
X188339Y157202D01*
X186540Y157819D01*
X184717Y158362D01*
X182874Y158829D01*
X181012Y159219D01*
X179137Y159532D01*
X177249Y159767D01*
X175354Y159924D01*
X173454Y160003D01*
X171552Y160003D01*
X169652Y159924D01*
X167757Y159767D01*
X165870Y159532D01*
X163994Y159219D01*
X162133Y158829D01*
X160289Y158362D01*
X158466Y157819D01*
X156668Y157202D01*
X154896Y156510D01*
X153154Y155746D01*
X151446Y154911D01*
X149773Y154006D01*
X148140Y153033D01*
X146548Y151992D01*
X145000Y150887D01*
X143499Y149719D01*
X142048Y148490D01*
X140649Y147202D01*
X139304Y145857D01*
X138016Y144458D01*
X136787Y143007D01*
X135619Y141506D01*
X134514Y139959D01*
X133473Y138366D01*
X132500Y136733D01*
X131595Y135060D01*
X130760Y133352D01*
X129996Y131610D01*
X129304Y129838D01*
X128687Y128040D01*
X128144Y126217D01*
X127677Y124373D01*
X127287Y122512D01*
X126974Y120636D01*
X126739Y118749D01*
X126582Y116854D01*
X126503Y114954D01*
X126503Y113052D01*
X126582Y111152D01*
X126739Y109257D01*
X126974Y107369D01*
X127287Y105494D01*
X127677Y103632D01*
X128144Y101789D01*
X128687Y99966D01*
X129304Y98167D01*
X129996Y96396D01*
X130760Y94654D01*
X131595Y92946D01*
X132500Y91273D01*
X133473Y89639D01*
X134514Y88047D01*
X135619Y86499D01*
X136787Y84999D01*
X138016Y83547D01*
X139304Y82148D01*
X140649Y80804D01*
X142048Y79516D01*
X143499Y78286D01*
X145000Y77118D01*
X146548Y76013D01*
X148140Y74973D01*
X149773Y74000D01*
X151446Y73094D01*
X153154Y72259D01*
X154896Y71495D01*
X156668Y70804D01*
X158466Y70187D01*
X160289Y69644D01*
X162133Y69177D01*
X163994Y68787D01*
X165870Y68474D01*
X167757Y68238D01*
X169652Y68081D01*
X171552Y68003D01*
X173454Y68003D01*
X175354Y68081D01*
X177249Y68238D01*
X179137Y68474D01*
X181012Y68787D01*
X182874Y69177D01*
X184717Y69644D01*
X186540Y70187D01*
X188339Y70804D01*
X190110Y71495D01*
X191852Y72259D01*
X193560Y73094D01*
X195233Y74000D01*
X196867Y74973D01*
X198459Y76013D01*
X200007Y77118D01*
X201507Y78286D01*
X202959Y79516D01*
X204358Y80804D01*
X205702Y82148D01*
X206990Y83547D01*
X208220Y84999D01*
X209388Y86499D01*
X210493Y88047D01*
X211533Y89639D01*
X212506Y91273D01*
X213412Y92946D01*
X214247Y94654D01*
X215011Y96396D01*
X215702Y98167D01*
X216320Y99966D01*
X216862Y101789D01*
X217329Y103632D01*
X217719Y105494D01*
X218032Y107369D01*
X218268Y109257D01*
X218425Y111152D01*
X218503Y113052D01*
X58009Y53440D02*
X57930Y52336D01*
X57772Y51240D01*
X57537Y50158D01*
X57225Y49096D01*
X56838Y48058D01*
X56378Y47051D01*
X55848Y46080D01*
X55249Y45148D01*
X54586Y44262D01*
X53861Y43425D01*
X53078Y42642D01*
X52241Y41917D01*
X51355Y41254D01*
X50423Y40655D01*
X49452Y40124D01*
X48444Y39665D01*
X47407Y39278D01*
X46345Y38966D01*
X45263Y38730D01*
X44167Y38573D01*
X43063Y38494D01*
X41955Y38494D01*
X40851Y38573D01*
X39755Y38730D01*
X38673Y38966D01*
X37611Y39278D01*
X36574Y39665D01*
X35567Y40124D01*
X34595Y40655D01*
X33663Y41254D01*
X32777Y41917D01*
X31940Y42642D01*
X31157Y43425D01*
X30432Y44262D01*
X29769Y45148D01*
X29170Y46080D01*
X28640Y47051D01*
X28180Y48058D01*
X27793Y49096D01*
X27481Y50158D01*
X27246Y51240D01*
X27088Y52336D01*
X27009Y53440D01*
X27009Y54547D01*
X27088Y55652D01*
X27246Y56748D01*
X27481Y57829D01*
X27793Y58892D01*
X28180Y59929D01*
X28640Y60936D01*
X29170Y61908D01*
X29769Y62839D01*
X30432Y63726D01*
X31157Y64563D01*
X31940Y65345D01*
X32777Y66070D01*
X33663Y66734D01*
X34595Y67333D01*
X35567Y67863D01*
X36574Y68323D01*
X37611Y68710D01*
X38673Y69022D01*
X39755Y69257D01*
X40851Y69415D01*
X41955Y69494D01*
X43063Y69494D01*
X44167Y69415D01*
X45263Y69257D01*
X46345Y69022D01*
X47407Y68710D01*
X48444Y68323D01*
X49452Y67863D01*
X50423Y67333D01*
X51355Y66734D01*
X52241Y66070D01*
X53078Y65345D01*
X53861Y64563D01*
X54586Y63726D01*
X55249Y62839D01*
X55848Y61908D01*
X56378Y60936D01*
X56838Y59929D01*
X57225Y58892D01*
X57537Y57829D01*
X57772Y56748D01*
X57930Y55652D01*
X58009Y54547D01*
X58009Y53440D01*
X317997Y53440D02*
X317918Y52336D01*
X317761Y51240D01*
X317525Y50158D01*
X317213Y49096D01*
X316827Y48058D01*
X316367Y47051D01*
X315836Y46080D01*
X315237Y45148D01*
X314574Y44262D01*
X313849Y43425D01*
X313066Y42642D01*
X312229Y41917D01*
X311343Y41254D01*
X310412Y40655D01*
X309440Y40124D01*
X308433Y39665D01*
X307395Y39278D01*
X306333Y38966D01*
X305251Y38730D01*
X304155Y38573D01*
X303051Y38494D01*
X301944Y38494D01*
X300839Y38573D01*
X299743Y38730D01*
X298662Y38966D01*
X297599Y39278D01*
X296562Y39665D01*
X295555Y40124D01*
X294583Y40655D01*
X293652Y41254D01*
X292765Y41917D01*
X291929Y42642D01*
X291146Y43425D01*
X290421Y44262D01*
X289757Y45148D01*
X289159Y46080D01*
X288628Y47051D01*
X288168Y48058D01*
X287781Y49096D01*
X287469Y50158D01*
X287234Y51240D01*
X287076Y52336D01*
X286997Y53440D01*
X286997Y54547D01*
X287076Y55652D01*
X287234Y56748D01*
X287469Y57829D01*
X287781Y58892D01*
X288168Y59929D01*
X288628Y60936D01*
X289159Y61908D01*
X289757Y62839D01*
X290421Y63726D01*
X291146Y64563D01*
X291929Y65345D01*
X292765Y66070D01*
X293652Y66734D01*
X294583Y67333D01*
X295555Y67863D01*
X296562Y68323D01*
X297599Y68710D01*
X298662Y69022D01*
X299743Y69257D01*
X300839Y69415D01*
X301944Y69494D01*
X303051Y69494D01*
X304155Y69415D01*
X305251Y69257D01*
X306333Y69022D01*
X307395Y68710D01*
X308433Y68323D01*
X309440Y67863D01*
X310412Y67333D01*
X311343Y66734D01*
X312229Y66070D01*
X313066Y65345D01*
X313849Y64563D01*
X314574Y63726D01*
X315237Y62839D01*
X315836Y61908D01*
X316367Y60936D01*
X316827Y59929D01*
X317213Y58892D01*
X317525Y57829D01*
X317761Y56748D01*
X317918Y55652D01*
X317997Y54547D01*
X317997Y53440D01*
X185003Y173493D02*
X184926Y172514D01*
X184772Y171543D01*
X184543Y170588D01*
X184240Y169654D01*
X183864Y168747D01*
X183418Y167871D01*
X182905Y167034D01*
X182327Y166239D01*
X181689Y165492D01*
X180995Y164798D01*
X180248Y164160D01*
X179453Y163583D01*
X178616Y163069D01*
X177740Y162623D01*
X176833Y162247D01*
X175899Y161944D01*
X174944Y161715D01*
X173974Y161561D01*
X172994Y161484D01*
X172012Y161484D01*
X171033Y161561D01*
X170063Y161715D01*
X169108Y161944D01*
X168173Y162247D01*
X167266Y162623D01*
X166391Y163069D01*
X165553Y163583D01*
X164759Y164160D01*
X164012Y164798D01*
X163317Y165492D01*
X162679Y166239D01*
X162102Y167034D01*
X161589Y167871D01*
X161143Y168747D01*
X160767Y169654D01*
X160463Y170588D01*
X160234Y171543D01*
X160080Y172514D01*
X160003Y173493D01*
X160003Y174475D01*
X160080Y175454D01*
X160234Y176424D01*
X160463Y177380D01*
X160767Y178314D01*
X161143Y179221D01*
X161589Y180096D01*
X162102Y180934D01*
X162679Y181729D01*
X163317Y182475D01*
X164012Y183170D01*
X164759Y183808D01*
X165553Y184385D01*
X166391Y184899D01*
X167266Y185344D01*
X168173Y185720D01*
X169108Y186024D01*
X170063Y186253D01*
X171033Y186407D01*
X172012Y186484D01*
X172994Y186484D01*
X173974Y186407D01*
X174944Y186253D01*
X175899Y186024D01*
X176833Y185720D01*
X177740Y185344D01*
X178616Y184899D01*
X179453Y184385D01*
X180248Y183808D01*
X180995Y183170D01*
X181689Y182475D01*
X182327Y181729D01*
X182905Y180934D01*
X183418Y180096D01*
X183864Y179221D01*
X184240Y178314D01*
X184543Y177380D01*
X184772Y176424D01*
X184926Y175454D01*
X185003Y174475D01*
X185003Y173493D01*
X185003Y53535D02*
X184926Y52556D01*
X184772Y51586D01*
X184543Y50631D01*
X184240Y49696D01*
X183864Y48789D01*
X183418Y47914D01*
X182905Y47076D01*
X182327Y46282D01*
X181689Y45535D01*
X180995Y44840D01*
X180248Y44202D01*
X179453Y43625D01*
X178616Y43112D01*
X177740Y42666D01*
X176833Y42290D01*
X175899Y41986D01*
X174944Y41757D01*
X173974Y41603D01*
X172994Y41526D01*
X172012Y41526D01*
X171033Y41603D01*
X170063Y41757D01*
X169108Y41986D01*
X168173Y42290D01*
X167266Y42666D01*
X166391Y43112D01*
X165553Y43625D01*
X164759Y44202D01*
X164012Y44840D01*
X163317Y45535D01*
X162679Y46282D01*
X162102Y47076D01*
X161589Y47914D01*
X161143Y48789D01*
X160767Y49696D01*
X160463Y50631D01*
X160234Y51586D01*
X160080Y52556D01*
X160003Y53535D01*
X160003Y54517D01*
X160080Y55497D01*
X160234Y56467D01*
X160463Y57422D01*
X160767Y58356D01*
X161143Y59263D01*
X161589Y60139D01*
X162102Y60976D01*
X162679Y61771D01*
X163317Y62518D01*
X164012Y63212D01*
X164759Y63850D01*
X165553Y64428D01*
X166391Y64941D01*
X167266Y65387D01*
X168173Y65763D01*
X169108Y66066D01*
X170063Y66295D01*
X171033Y66449D01*
X172012Y66526D01*
X172994Y66526D01*
X173974Y66449D01*
X174944Y66295D01*
X175899Y66066D01*
X176833Y65763D01*
X177740Y65387D01*
X178616Y64941D01*
X179453Y64428D01*
X180248Y63850D01*
X180995Y63212D01*
X181689Y62518D01*
X182327Y61771D01*
X182905Y60976D01*
X183418Y60139D01*
X183864Y59263D01*
X184240Y58356D01*
X184543Y57422D01*
X184772Y56467D01*
X184926Y55497D01*
X185003Y54517D01*
X185003Y53535D01*
X236963Y83511D02*
X236886Y82532D01*
X236732Y81562D01*
X236503Y80607D01*
X236199Y79672D01*
X235823Y78765D01*
X235377Y77890D01*
X234864Y77052D01*
X234287Y76258D01*
X233649Y75511D01*
X232954Y74816D01*
X232207Y74178D01*
X231413Y73601D01*
X230575Y73088D01*
X229700Y72642D01*
X228792Y72266D01*
X227858Y71962D01*
X226903Y71733D01*
X225933Y71579D01*
X224954Y71502D01*
X223972Y71502D01*
X222992Y71579D01*
X222022Y71733D01*
X221067Y71962D01*
X220133Y72266D01*
X219225Y72642D01*
X218350Y73088D01*
X217513Y73601D01*
X216718Y74178D01*
X215971Y74816D01*
X215277Y75511D01*
X214639Y76258D01*
X214061Y77052D01*
X213548Y77890D01*
X213102Y78765D01*
X212726Y79672D01*
X212423Y80607D01*
X212193Y81562D01*
X212040Y82532D01*
X211963Y83511D01*
X211963Y84493D01*
X212040Y85473D01*
X212193Y86443D01*
X212423Y87398D01*
X212726Y88332D01*
X213102Y89239D01*
X213548Y90115D01*
X214061Y90952D01*
X214639Y91747D01*
X215277Y92494D01*
X215971Y93188D01*
X216718Y93826D01*
X217513Y94404D01*
X218350Y94917D01*
X219225Y95363D01*
X220133Y95739D01*
X221067Y96042D01*
X222022Y96271D01*
X222992Y96425D01*
X223972Y96502D01*
X224954Y96502D01*
X225933Y96425D01*
X226903Y96271D01*
X227858Y96042D01*
X228792Y95739D01*
X229700Y95363D01*
X230575Y94917D01*
X231413Y94404D01*
X232207Y93826D01*
X232954Y93188D01*
X233649Y92494D01*
X234287Y91747D01*
X234864Y90952D01*
X235377Y90115D01*
X235823Y89239D01*
X236199Y88332D01*
X236503Y87398D01*
X236732Y86443D01*
X236886Y85473D01*
X236963Y84493D01*
X236963Y83511D01*
X236948Y143537D02*
X236871Y142558D01*
X236717Y141588D01*
X236488Y140633D01*
X236184Y139698D01*
X235808Y138791D01*
X235362Y137916D01*
X234849Y137078D01*
X234272Y136283D01*
X233634Y135537D01*
X232939Y134842D01*
X232192Y134204D01*
X231398Y133627D01*
X230560Y133114D01*
X229685Y132668D01*
X228777Y132292D01*
X227843Y131988D01*
X226888Y131759D01*
X225918Y131605D01*
X224939Y131528D01*
X223956Y131528D01*
X222977Y131605D01*
X222007Y131759D01*
X221052Y131988D01*
X220118Y132292D01*
X219210Y132668D01*
X218335Y133114D01*
X217498Y133627D01*
X216703Y134204D01*
X215956Y134842D01*
X215261Y135537D01*
X214624Y136283D01*
X214046Y137078D01*
X213533Y137916D01*
X213087Y138791D01*
X212711Y139698D01*
X212408Y140633D01*
X212178Y141588D01*
X212025Y142558D01*
X211948Y143537D01*
X211948Y144519D01*
X212025Y145498D01*
X212178Y146469D01*
X212408Y147424D01*
X212711Y148358D01*
X213087Y149265D01*
X213533Y150141D01*
X214046Y150978D01*
X214624Y151773D01*
X215261Y152520D01*
X215956Y153214D01*
X216703Y153852D01*
X217498Y154430D01*
X218335Y154943D01*
X219210Y155389D01*
X220118Y155765D01*
X221052Y156068D01*
X222007Y156297D01*
X222977Y156451D01*
X223956Y156528D01*
X224939Y156528D01*
X225918Y156451D01*
X226888Y156297D01*
X227843Y156068D01*
X228777Y155765D01*
X229685Y155389D01*
X230560Y154943D01*
X231398Y154430D01*
X232192Y153852D01*
X232939Y153214D01*
X233634Y152520D01*
X234272Y151773D01*
X234849Y150978D01*
X235362Y150141D01*
X235808Y149265D01*
X236184Y148358D01*
X236488Y147424D01*
X236717Y146469D01*
X236871Y145498D01*
X236948Y144519D01*
X236948Y143537D01*
X133046Y83510D02*
X132969Y82531D01*
X132815Y81561D01*
X132586Y80606D01*
X132282Y79672D01*
X131907Y78764D01*
X131461Y77889D01*
X130947Y77051D01*
X130370Y76257D01*
X129732Y75510D01*
X129038Y74815D01*
X128291Y74177D01*
X127496Y73600D01*
X126659Y73087D01*
X125783Y72641D01*
X124876Y72265D01*
X123942Y71962D01*
X122987Y71732D01*
X122016Y71579D01*
X121037Y71501D01*
X120055Y71501D01*
X119076Y71579D01*
X118106Y71732D01*
X117150Y71962D01*
X116216Y72265D01*
X115309Y72641D01*
X114434Y73087D01*
X113596Y73600D01*
X112801Y74177D01*
X112054Y74815D01*
X111360Y75510D01*
X110722Y76257D01*
X110145Y77051D01*
X109631Y77889D01*
X109185Y78764D01*
X108810Y79672D01*
X108506Y80606D01*
X108277Y81561D01*
X108123Y82531D01*
X108046Y83510D01*
X108046Y84493D01*
X108123Y85472D01*
X108277Y86442D01*
X108506Y87397D01*
X108810Y88331D01*
X109185Y89239D01*
X109631Y90114D01*
X110145Y90951D01*
X110722Y91746D01*
X111360Y92493D01*
X112054Y93188D01*
X112801Y93826D01*
X113596Y94403D01*
X114434Y94916D01*
X115309Y95362D01*
X116216Y95738D01*
X117150Y96041D01*
X118106Y96271D01*
X119076Y96424D01*
X120055Y96501D01*
X121037Y96501D01*
X122016Y96424D01*
X122987Y96271D01*
X123942Y96041D01*
X124876Y95738D01*
X125783Y95362D01*
X126659Y94916D01*
X127496Y94403D01*
X128291Y93826D01*
X129038Y93188D01*
X129732Y92493D01*
X130370Y91746D01*
X130947Y90951D01*
X131461Y90114D01*
X131907Y89239D01*
X132282Y88331D01*
X132586Y87397D01*
X132815Y86442D01*
X132969Y85472D01*
X133046Y84493D01*
X133046Y83510D01*
X133059Y143487D02*
X132982Y142508D01*
X132828Y141537D01*
X132599Y140582D01*
X132295Y139648D01*
X131919Y138741D01*
X131473Y137865D01*
X130960Y137028D01*
X130383Y136233D01*
X129745Y135486D01*
X129050Y134792D01*
X128303Y134154D01*
X127509Y133576D01*
X126671Y133063D01*
X125796Y132617D01*
X124889Y132241D01*
X123954Y131938D01*
X122999Y131709D01*
X122029Y131555D01*
X121050Y131478D01*
X120068Y131478D01*
X119088Y131555D01*
X118118Y131709D01*
X117163Y131938D01*
X116229Y132241D01*
X115321Y132617D01*
X114446Y133063D01*
X113609Y133576D01*
X112814Y134154D01*
X112067Y134792D01*
X111373Y135486D01*
X110735Y136233D01*
X110157Y137028D01*
X109644Y137865D01*
X109198Y138741D01*
X108822Y139648D01*
X108519Y140582D01*
X108289Y141537D01*
X108136Y142508D01*
X108059Y143487D01*
X108059Y144469D01*
X108136Y145448D01*
X108289Y146418D01*
X108519Y147373D01*
X108822Y148308D01*
X109198Y149215D01*
X109644Y150090D01*
X110157Y150928D01*
X110735Y151723D01*
X111373Y152469D01*
X112067Y153164D01*
X112814Y153802D01*
X113609Y154379D01*
X114446Y154892D01*
X115321Y155338D01*
X116229Y155714D01*
X117163Y156018D01*
X118118Y156247D01*
X119088Y156401D01*
X120068Y156478D01*
X121050Y156478D01*
X122029Y156401D01*
X122999Y156247D01*
X123954Y156018D01*
X124889Y155714D01*
X125796Y155338D01*
X126671Y154892D01*
X127509Y154379D01*
X128303Y153802D01*
X129050Y153164D01*
X129745Y152469D01*
X130383Y151723D01*
X130960Y150928D01*
X131473Y150090D01*
X131919Y149215D01*
X132295Y148308D01*
X132599Y147373D01*
X132828Y146418D01*
X132982Y145448D01*
X133059Y144469D01*
X133059Y143487D01*
M02*
