G04 EAGLE Gerber RS-274X export*
G75*
%MOMM*%
%FSLAX34Y34*%
%LPD*%
%INSilkscreen Top*%
%IPPOS*%
%AMOC8*
5,1,8,0,0,1.08239X$1,22.5*%
G01*
%ADD10C,0.130000*%
%ADD11C,0.152400*%
%ADD12C,0.010000*%


D10*
X70031Y165730D02*
X70031Y259500D01*
X274976Y259500D02*
X274976Y165730D01*
X274326Y240000D02*
X70681Y240000D01*
X96031Y243192D01*
X96031Y236808D01*
X70681Y240000D01*
X96031Y241300D01*
X96031Y238700D02*
X70681Y240000D01*
X96031Y242600D01*
X96031Y237400D02*
X70681Y240000D01*
X248976Y243192D02*
X274326Y240000D01*
X248976Y243192D02*
X248976Y236808D01*
X274326Y240000D01*
X248976Y241300D01*
X248976Y238700D02*
X274326Y240000D01*
X248976Y242600D01*
X248976Y237400D02*
X274326Y240000D01*
D11*
X150386Y258699D02*
X150384Y258824D01*
X150378Y258949D01*
X150369Y259074D01*
X150355Y259198D01*
X150338Y259322D01*
X150317Y259446D01*
X150292Y259568D01*
X150263Y259690D01*
X150231Y259811D01*
X150195Y259931D01*
X150155Y260050D01*
X150112Y260167D01*
X150065Y260283D01*
X150014Y260398D01*
X149960Y260510D01*
X149902Y260622D01*
X149842Y260731D01*
X149777Y260838D01*
X149710Y260944D01*
X149639Y261047D01*
X149565Y261148D01*
X149488Y261247D01*
X149408Y261343D01*
X149325Y261437D01*
X149240Y261528D01*
X149151Y261617D01*
X149060Y261702D01*
X148966Y261785D01*
X148870Y261865D01*
X148771Y261942D01*
X148670Y262016D01*
X148567Y262087D01*
X148461Y262154D01*
X148354Y262219D01*
X148245Y262279D01*
X148133Y262337D01*
X148021Y262391D01*
X147906Y262442D01*
X147790Y262489D01*
X147673Y262532D01*
X147554Y262572D01*
X147434Y262608D01*
X147313Y262640D01*
X147191Y262669D01*
X147069Y262694D01*
X146945Y262715D01*
X146821Y262732D01*
X146697Y262746D01*
X146572Y262755D01*
X146447Y262761D01*
X146322Y262763D01*
X146179Y262761D01*
X146037Y262755D01*
X145894Y262745D01*
X145752Y262732D01*
X145611Y262714D01*
X145469Y262693D01*
X145329Y262668D01*
X145189Y262639D01*
X145050Y262606D01*
X144912Y262569D01*
X144775Y262529D01*
X144640Y262485D01*
X144505Y262437D01*
X144372Y262385D01*
X144240Y262330D01*
X144110Y262271D01*
X143982Y262209D01*
X143855Y262143D01*
X143730Y262074D01*
X143607Y262002D01*
X143487Y261926D01*
X143368Y261847D01*
X143251Y261764D01*
X143137Y261679D01*
X143025Y261590D01*
X142916Y261499D01*
X142809Y261404D01*
X142704Y261307D01*
X142603Y261206D01*
X142504Y261103D01*
X142408Y260998D01*
X142315Y260889D01*
X142225Y260778D01*
X142138Y260665D01*
X142054Y260550D01*
X141974Y260432D01*
X141896Y260312D01*
X141822Y260190D01*
X141752Y260066D01*
X141684Y259940D01*
X141621Y259812D01*
X141560Y259683D01*
X141503Y259552D01*
X141450Y259420D01*
X141401Y259286D01*
X141355Y259151D01*
X149031Y255538D02*
X149125Y255630D01*
X149215Y255724D01*
X149303Y255821D01*
X149388Y255921D01*
X149470Y256023D01*
X149549Y256128D01*
X149624Y256235D01*
X149696Y256344D01*
X149765Y256455D01*
X149831Y256569D01*
X149893Y256684D01*
X149952Y256801D01*
X150007Y256920D01*
X150058Y257040D01*
X150106Y257162D01*
X150151Y257285D01*
X150191Y257409D01*
X150228Y257535D01*
X150261Y257662D01*
X150290Y257789D01*
X150316Y257918D01*
X150337Y258047D01*
X150355Y258177D01*
X150368Y258307D01*
X150378Y258437D01*
X150384Y258568D01*
X150386Y258699D01*
X149032Y255538D02*
X141355Y246507D01*
X150386Y246507D01*
X156987Y254635D02*
X156991Y254955D01*
X157002Y255274D01*
X157021Y255594D01*
X157048Y255912D01*
X157082Y256230D01*
X157124Y256547D01*
X157174Y256863D01*
X157231Y257178D01*
X157295Y257491D01*
X157367Y257803D01*
X157446Y258113D01*
X157533Y258420D01*
X157627Y258726D01*
X157728Y259029D01*
X157837Y259330D01*
X157952Y259628D01*
X158075Y259924D01*
X158205Y260216D01*
X158342Y260505D01*
X158341Y260506D02*
X158380Y260614D01*
X158423Y260721D01*
X158469Y260826D01*
X158520Y260930D01*
X158573Y261032D01*
X158630Y261132D01*
X158691Y261230D01*
X158755Y261325D01*
X158822Y261419D01*
X158893Y261510D01*
X158966Y261599D01*
X159043Y261685D01*
X159122Y261768D01*
X159204Y261849D01*
X159289Y261927D01*
X159377Y262001D01*
X159467Y262073D01*
X159559Y262141D01*
X159654Y262207D01*
X159751Y262269D01*
X159850Y262327D01*
X159952Y262383D01*
X160054Y262434D01*
X160159Y262482D01*
X160265Y262527D01*
X160373Y262568D01*
X160482Y262605D01*
X160592Y262638D01*
X160704Y262667D01*
X160816Y262693D01*
X160929Y262715D01*
X161043Y262732D01*
X161157Y262746D01*
X161272Y262756D01*
X161387Y262762D01*
X161502Y262764D01*
X161502Y262763D02*
X161617Y262761D01*
X161732Y262755D01*
X161847Y262745D01*
X161961Y262731D01*
X162075Y262714D01*
X162188Y262692D01*
X162300Y262666D01*
X162412Y262637D01*
X162522Y262604D01*
X162631Y262567D01*
X162739Y262526D01*
X162845Y262481D01*
X162950Y262433D01*
X163052Y262382D01*
X163153Y262326D01*
X163253Y262268D01*
X163350Y262206D01*
X163444Y262141D01*
X163537Y262072D01*
X163627Y262000D01*
X163715Y261926D01*
X163800Y261848D01*
X163882Y261767D01*
X163961Y261684D01*
X164038Y261598D01*
X164111Y261509D01*
X164182Y261418D01*
X164249Y261324D01*
X164313Y261229D01*
X164374Y261131D01*
X164431Y261031D01*
X164484Y260929D01*
X164535Y260825D01*
X164581Y260720D01*
X164624Y260613D01*
X164663Y260505D01*
X164662Y260505D02*
X164799Y260216D01*
X164929Y259924D01*
X165052Y259628D01*
X165167Y259330D01*
X165276Y259029D01*
X165377Y258726D01*
X165471Y258420D01*
X165558Y258113D01*
X165637Y257803D01*
X165709Y257491D01*
X165773Y257178D01*
X165830Y256863D01*
X165880Y256547D01*
X165922Y256230D01*
X165956Y255912D01*
X165983Y255594D01*
X166002Y255274D01*
X166013Y254955D01*
X166017Y254635D01*
X156987Y254635D02*
X156991Y254315D01*
X157002Y253996D01*
X157021Y253676D01*
X157048Y253358D01*
X157082Y253040D01*
X157124Y252723D01*
X157174Y252407D01*
X157231Y252092D01*
X157295Y251779D01*
X157367Y251467D01*
X157446Y251157D01*
X157533Y250850D01*
X157627Y250544D01*
X157728Y250241D01*
X157837Y249940D01*
X157952Y249642D01*
X158075Y249346D01*
X158205Y249054D01*
X158342Y248765D01*
X158341Y248765D02*
X158380Y248657D01*
X158423Y248550D01*
X158469Y248445D01*
X158520Y248341D01*
X158573Y248239D01*
X158630Y248139D01*
X158691Y248041D01*
X158755Y247946D01*
X158822Y247852D01*
X158893Y247761D01*
X158966Y247672D01*
X159043Y247586D01*
X159122Y247503D01*
X159204Y247422D01*
X159289Y247344D01*
X159377Y247270D01*
X159467Y247198D01*
X159560Y247129D01*
X159654Y247064D01*
X159751Y247002D01*
X159851Y246944D01*
X159952Y246888D01*
X160054Y246837D01*
X160159Y246789D01*
X160265Y246744D01*
X160373Y246703D01*
X160482Y246666D01*
X160592Y246633D01*
X160704Y246604D01*
X160816Y246578D01*
X160929Y246556D01*
X161043Y246539D01*
X161157Y246525D01*
X161272Y246515D01*
X161387Y246509D01*
X161502Y246507D01*
X164662Y248765D02*
X164799Y249054D01*
X164929Y249346D01*
X165052Y249642D01*
X165167Y249940D01*
X165276Y250241D01*
X165377Y250544D01*
X165471Y250850D01*
X165558Y251157D01*
X165637Y251467D01*
X165709Y251779D01*
X165773Y252092D01*
X165830Y252407D01*
X165880Y252723D01*
X165922Y253040D01*
X165956Y253358D01*
X165983Y253676D01*
X166002Y253996D01*
X166013Y254315D01*
X166017Y254635D01*
X164663Y248765D02*
X164624Y248657D01*
X164581Y248550D01*
X164535Y248445D01*
X164484Y248341D01*
X164431Y248239D01*
X164374Y248139D01*
X164313Y248041D01*
X164249Y247946D01*
X164182Y247852D01*
X164111Y247761D01*
X164038Y247672D01*
X163961Y247586D01*
X163882Y247503D01*
X163800Y247422D01*
X163715Y247344D01*
X163627Y247270D01*
X163537Y247198D01*
X163444Y247129D01*
X163350Y247064D01*
X163253Y247002D01*
X163153Y246944D01*
X163052Y246888D01*
X162949Y246837D01*
X162845Y246789D01*
X162739Y246744D01*
X162631Y246703D01*
X162522Y246666D01*
X162412Y246633D01*
X162300Y246604D01*
X162188Y246578D01*
X162075Y246556D01*
X161961Y246539D01*
X161847Y246525D01*
X161732Y246515D01*
X161617Y246509D01*
X161502Y246507D01*
X157889Y250119D02*
X165114Y259151D01*
X171992Y247410D02*
X171992Y246507D01*
X171992Y247410D02*
X172895Y247410D01*
X172895Y246507D01*
X171992Y246507D01*
X178870Y250119D02*
X182483Y262763D01*
X178870Y250119D02*
X187901Y250119D01*
X185192Y253732D02*
X185192Y246507D01*
X198114Y253732D02*
X203532Y253732D01*
X198114Y253732D02*
X197996Y253734D01*
X197878Y253740D01*
X197760Y253749D01*
X197643Y253763D01*
X197526Y253780D01*
X197409Y253801D01*
X197294Y253826D01*
X197179Y253855D01*
X197065Y253888D01*
X196953Y253924D01*
X196842Y253964D01*
X196732Y254007D01*
X196623Y254054D01*
X196516Y254104D01*
X196411Y254159D01*
X196308Y254216D01*
X196207Y254277D01*
X196107Y254341D01*
X196010Y254408D01*
X195915Y254478D01*
X195823Y254552D01*
X195732Y254628D01*
X195645Y254708D01*
X195560Y254790D01*
X195478Y254875D01*
X195398Y254962D01*
X195322Y255053D01*
X195248Y255145D01*
X195178Y255240D01*
X195111Y255337D01*
X195047Y255437D01*
X194986Y255538D01*
X194929Y255641D01*
X194874Y255746D01*
X194824Y255853D01*
X194777Y255962D01*
X194734Y256072D01*
X194694Y256183D01*
X194658Y256295D01*
X194625Y256409D01*
X194596Y256524D01*
X194571Y256639D01*
X194550Y256756D01*
X194533Y256873D01*
X194519Y256990D01*
X194510Y257108D01*
X194504Y257226D01*
X194502Y257344D01*
X194501Y257344D02*
X194501Y258247D01*
X194503Y258380D01*
X194509Y258512D01*
X194519Y258644D01*
X194532Y258776D01*
X194550Y258908D01*
X194571Y259038D01*
X194596Y259169D01*
X194625Y259298D01*
X194658Y259426D01*
X194694Y259554D01*
X194734Y259680D01*
X194778Y259805D01*
X194826Y259929D01*
X194877Y260051D01*
X194932Y260172D01*
X194990Y260291D01*
X195052Y260409D01*
X195117Y260524D01*
X195186Y260638D01*
X195257Y260749D01*
X195333Y260858D01*
X195411Y260965D01*
X195492Y261070D01*
X195577Y261172D01*
X195664Y261272D01*
X195754Y261369D01*
X195847Y261464D01*
X195943Y261555D01*
X196041Y261644D01*
X196142Y261730D01*
X196246Y261813D01*
X196352Y261893D01*
X196460Y261969D01*
X196570Y262043D01*
X196683Y262113D01*
X196797Y262180D01*
X196914Y262243D01*
X197032Y262303D01*
X197152Y262360D01*
X197274Y262413D01*
X197397Y262462D01*
X197521Y262508D01*
X197647Y262550D01*
X197774Y262588D01*
X197902Y262623D01*
X198031Y262654D01*
X198160Y262681D01*
X198291Y262704D01*
X198422Y262724D01*
X198554Y262739D01*
X198686Y262751D01*
X198818Y262759D01*
X198951Y262763D01*
X199083Y262763D01*
X199216Y262759D01*
X199348Y262751D01*
X199480Y262739D01*
X199612Y262724D01*
X199743Y262704D01*
X199874Y262681D01*
X200003Y262654D01*
X200132Y262623D01*
X200260Y262588D01*
X200387Y262550D01*
X200513Y262508D01*
X200637Y262462D01*
X200760Y262413D01*
X200882Y262360D01*
X201002Y262303D01*
X201120Y262243D01*
X201237Y262180D01*
X201351Y262113D01*
X201464Y262043D01*
X201574Y261969D01*
X201682Y261893D01*
X201788Y261813D01*
X201892Y261730D01*
X201993Y261644D01*
X202091Y261555D01*
X202187Y261464D01*
X202280Y261369D01*
X202370Y261272D01*
X202457Y261172D01*
X202542Y261070D01*
X202623Y260965D01*
X202701Y260858D01*
X202777Y260749D01*
X202848Y260638D01*
X202917Y260524D01*
X202982Y260409D01*
X203044Y260291D01*
X203102Y260172D01*
X203157Y260051D01*
X203208Y259929D01*
X203256Y259805D01*
X203300Y259680D01*
X203340Y259554D01*
X203376Y259426D01*
X203409Y259298D01*
X203438Y259169D01*
X203463Y259038D01*
X203484Y258908D01*
X203502Y258776D01*
X203515Y258644D01*
X203525Y258512D01*
X203531Y258380D01*
X203533Y258247D01*
X203532Y258247D02*
X203532Y253732D01*
X203533Y253732D02*
X203531Y253557D01*
X203525Y253383D01*
X203514Y253209D01*
X203499Y253035D01*
X203480Y252861D01*
X203457Y252688D01*
X203430Y252516D01*
X203398Y252344D01*
X203363Y252173D01*
X203323Y252003D01*
X203279Y251834D01*
X203231Y251666D01*
X203179Y251499D01*
X203123Y251334D01*
X203063Y251170D01*
X203000Y251007D01*
X202932Y250847D01*
X202860Y250687D01*
X202785Y250530D01*
X202705Y250374D01*
X202622Y250221D01*
X202536Y250069D01*
X202445Y249920D01*
X202351Y249773D01*
X202254Y249628D01*
X202153Y249485D01*
X202049Y249345D01*
X201941Y249208D01*
X201830Y249073D01*
X201716Y248941D01*
X201599Y248812D01*
X201478Y248685D01*
X201355Y248562D01*
X201228Y248441D01*
X201099Y248324D01*
X200967Y248210D01*
X200832Y248099D01*
X200695Y247991D01*
X200555Y247887D01*
X200412Y247786D01*
X200267Y247689D01*
X200120Y247595D01*
X199971Y247504D01*
X199819Y247418D01*
X199666Y247335D01*
X199510Y247255D01*
X199353Y247180D01*
X199193Y247108D01*
X199033Y247040D01*
X198870Y246977D01*
X198706Y246917D01*
X198541Y246861D01*
X198374Y246809D01*
X198206Y246761D01*
X198037Y246717D01*
X197867Y246677D01*
X197696Y246642D01*
X197524Y246610D01*
X197352Y246583D01*
X197179Y246560D01*
X197005Y246541D01*
X196831Y246526D01*
X196657Y246515D01*
X196483Y246509D01*
X196308Y246507D01*
D10*
X-15000Y-15000D02*
X-15000Y-69500D01*
X355000Y-69500D02*
X355000Y-15000D01*
X354350Y-50000D02*
X-14350Y-50000D01*
X11000Y-46808D01*
X11000Y-53192D01*
X-14350Y-50000D01*
X11000Y-48700D01*
X11000Y-51300D02*
X-14350Y-50000D01*
X11000Y-47400D01*
X11000Y-52600D02*
X-14350Y-50000D01*
X329000Y-46808D02*
X354350Y-50000D01*
X329000Y-46808D02*
X329000Y-53192D01*
X354350Y-50000D01*
X329000Y-48700D01*
X329000Y-51300D02*
X354350Y-50000D01*
X329000Y-47400D01*
X329000Y-52600D02*
X354350Y-50000D01*
D11*
X143368Y-43493D02*
X138852Y-43493D01*
X143368Y-43493D02*
X143501Y-43491D01*
X143633Y-43485D01*
X143765Y-43475D01*
X143897Y-43462D01*
X144029Y-43444D01*
X144159Y-43423D01*
X144290Y-43398D01*
X144419Y-43369D01*
X144547Y-43336D01*
X144675Y-43300D01*
X144801Y-43260D01*
X144926Y-43216D01*
X145050Y-43168D01*
X145172Y-43117D01*
X145293Y-43062D01*
X145412Y-43004D01*
X145530Y-42942D01*
X145645Y-42877D01*
X145759Y-42808D01*
X145870Y-42737D01*
X145979Y-42661D01*
X146086Y-42583D01*
X146191Y-42502D01*
X146293Y-42417D01*
X146393Y-42330D01*
X146490Y-42240D01*
X146585Y-42147D01*
X146676Y-42051D01*
X146765Y-41953D01*
X146851Y-41852D01*
X146934Y-41748D01*
X147014Y-41642D01*
X147090Y-41534D01*
X147164Y-41424D01*
X147234Y-41311D01*
X147301Y-41197D01*
X147364Y-41080D01*
X147424Y-40962D01*
X147481Y-40842D01*
X147534Y-40720D01*
X147583Y-40597D01*
X147629Y-40473D01*
X147671Y-40347D01*
X147709Y-40220D01*
X147744Y-40092D01*
X147775Y-39963D01*
X147802Y-39834D01*
X147825Y-39703D01*
X147845Y-39572D01*
X147860Y-39440D01*
X147872Y-39308D01*
X147880Y-39176D01*
X147884Y-39043D01*
X147884Y-38911D01*
X147880Y-38778D01*
X147872Y-38646D01*
X147860Y-38514D01*
X147845Y-38382D01*
X147825Y-38251D01*
X147802Y-38120D01*
X147775Y-37991D01*
X147744Y-37862D01*
X147709Y-37734D01*
X147671Y-37607D01*
X147629Y-37481D01*
X147583Y-37357D01*
X147534Y-37234D01*
X147481Y-37112D01*
X147424Y-36992D01*
X147364Y-36874D01*
X147301Y-36757D01*
X147234Y-36643D01*
X147164Y-36530D01*
X147090Y-36420D01*
X147014Y-36312D01*
X146934Y-36206D01*
X146851Y-36102D01*
X146765Y-36001D01*
X146676Y-35903D01*
X146585Y-35807D01*
X146490Y-35714D01*
X146393Y-35624D01*
X146293Y-35537D01*
X146191Y-35452D01*
X146086Y-35371D01*
X145979Y-35293D01*
X145870Y-35217D01*
X145759Y-35146D01*
X145645Y-35077D01*
X145530Y-35012D01*
X145412Y-34950D01*
X145293Y-34892D01*
X145172Y-34837D01*
X145050Y-34786D01*
X144926Y-34738D01*
X144801Y-34694D01*
X144675Y-34654D01*
X144547Y-34618D01*
X144419Y-34585D01*
X144290Y-34556D01*
X144159Y-34531D01*
X144029Y-34510D01*
X143897Y-34492D01*
X143765Y-34479D01*
X143633Y-34469D01*
X143501Y-34463D01*
X143368Y-34461D01*
X144271Y-27237D02*
X138852Y-27237D01*
X144271Y-27237D02*
X144390Y-27239D01*
X144510Y-27245D01*
X144629Y-27255D01*
X144747Y-27269D01*
X144866Y-27286D01*
X144983Y-27308D01*
X145100Y-27333D01*
X145215Y-27363D01*
X145330Y-27396D01*
X145444Y-27433D01*
X145556Y-27473D01*
X145667Y-27518D01*
X145776Y-27566D01*
X145884Y-27617D01*
X145990Y-27672D01*
X146094Y-27731D01*
X146196Y-27793D01*
X146296Y-27858D01*
X146394Y-27927D01*
X146490Y-27999D01*
X146583Y-28074D01*
X146673Y-28151D01*
X146761Y-28232D01*
X146846Y-28316D01*
X146928Y-28403D01*
X147008Y-28492D01*
X147084Y-28584D01*
X147158Y-28678D01*
X147228Y-28775D01*
X147295Y-28873D01*
X147359Y-28974D01*
X147419Y-29078D01*
X147476Y-29183D01*
X147529Y-29290D01*
X147579Y-29398D01*
X147625Y-29508D01*
X147667Y-29620D01*
X147706Y-29733D01*
X147741Y-29847D01*
X147772Y-29962D01*
X147800Y-30079D01*
X147823Y-30196D01*
X147843Y-30313D01*
X147859Y-30432D01*
X147871Y-30551D01*
X147879Y-30670D01*
X147883Y-30789D01*
X147883Y-30909D01*
X147879Y-31028D01*
X147871Y-31147D01*
X147859Y-31266D01*
X147843Y-31385D01*
X147823Y-31502D01*
X147800Y-31619D01*
X147772Y-31736D01*
X147741Y-31851D01*
X147706Y-31965D01*
X147667Y-32078D01*
X147625Y-32190D01*
X147579Y-32300D01*
X147529Y-32408D01*
X147476Y-32515D01*
X147419Y-32620D01*
X147359Y-32724D01*
X147295Y-32825D01*
X147228Y-32923D01*
X147158Y-33020D01*
X147084Y-33114D01*
X147008Y-33206D01*
X146928Y-33295D01*
X146846Y-33382D01*
X146761Y-33466D01*
X146673Y-33547D01*
X146583Y-33624D01*
X146490Y-33699D01*
X146394Y-33771D01*
X146296Y-33840D01*
X146196Y-33905D01*
X146094Y-33967D01*
X145990Y-34026D01*
X145884Y-34081D01*
X145776Y-34132D01*
X145667Y-34180D01*
X145556Y-34225D01*
X145444Y-34265D01*
X145330Y-34302D01*
X145215Y-34335D01*
X145100Y-34365D01*
X144983Y-34390D01*
X144866Y-34412D01*
X144747Y-34429D01*
X144629Y-34443D01*
X144510Y-34453D01*
X144390Y-34459D01*
X144271Y-34461D01*
X144271Y-34462D02*
X140658Y-34462D01*
X154483Y-29043D02*
X154483Y-27237D01*
X163514Y-27237D01*
X158999Y-43493D01*
X169489Y-43493D02*
X169489Y-42590D01*
X170392Y-42590D01*
X170392Y-43493D01*
X169489Y-43493D01*
X176367Y-35365D02*
X176371Y-35045D01*
X176382Y-34726D01*
X176401Y-34406D01*
X176428Y-34088D01*
X176462Y-33770D01*
X176504Y-33453D01*
X176554Y-33137D01*
X176611Y-32822D01*
X176675Y-32509D01*
X176747Y-32197D01*
X176826Y-31887D01*
X176913Y-31580D01*
X177007Y-31274D01*
X177108Y-30971D01*
X177217Y-30670D01*
X177332Y-30372D01*
X177455Y-30076D01*
X177585Y-29784D01*
X177722Y-29495D01*
X177722Y-29494D02*
X177761Y-29386D01*
X177804Y-29279D01*
X177850Y-29174D01*
X177900Y-29071D01*
X177954Y-28969D01*
X178011Y-28869D01*
X178072Y-28771D01*
X178136Y-28675D01*
X178203Y-28582D01*
X178273Y-28491D01*
X178347Y-28402D01*
X178423Y-28316D01*
X178503Y-28233D01*
X178585Y-28152D01*
X178670Y-28074D01*
X178757Y-28000D01*
X178848Y-27928D01*
X178940Y-27859D01*
X179035Y-27794D01*
X179132Y-27732D01*
X179231Y-27673D01*
X179332Y-27618D01*
X179435Y-27567D01*
X179540Y-27519D01*
X179646Y-27474D01*
X179753Y-27433D01*
X179862Y-27396D01*
X179973Y-27363D01*
X180084Y-27334D01*
X180196Y-27308D01*
X180309Y-27286D01*
X180423Y-27269D01*
X180537Y-27255D01*
X180652Y-27245D01*
X180767Y-27239D01*
X180882Y-27237D01*
X180997Y-27239D01*
X181112Y-27245D01*
X181227Y-27255D01*
X181341Y-27269D01*
X181455Y-27286D01*
X181568Y-27308D01*
X181680Y-27334D01*
X181792Y-27363D01*
X181902Y-27396D01*
X182011Y-27433D01*
X182119Y-27474D01*
X182225Y-27519D01*
X182330Y-27567D01*
X182432Y-27618D01*
X182534Y-27674D01*
X182633Y-27732D01*
X182730Y-27794D01*
X182825Y-27860D01*
X182917Y-27928D01*
X183007Y-28000D01*
X183095Y-28074D01*
X183180Y-28152D01*
X183262Y-28233D01*
X183341Y-28316D01*
X183418Y-28402D01*
X183491Y-28491D01*
X183562Y-28582D01*
X183629Y-28676D01*
X183693Y-28771D01*
X183754Y-28869D01*
X183811Y-28969D01*
X183864Y-29071D01*
X183915Y-29175D01*
X183961Y-29280D01*
X184004Y-29387D01*
X184043Y-29495D01*
X184180Y-29784D01*
X184310Y-30076D01*
X184433Y-30372D01*
X184548Y-30670D01*
X184657Y-30971D01*
X184758Y-31274D01*
X184852Y-31580D01*
X184939Y-31887D01*
X185018Y-32197D01*
X185090Y-32509D01*
X185154Y-32822D01*
X185211Y-33137D01*
X185261Y-33453D01*
X185303Y-33770D01*
X185337Y-34088D01*
X185364Y-34406D01*
X185383Y-34726D01*
X185394Y-35045D01*
X185398Y-35365D01*
X176367Y-35365D02*
X176371Y-35685D01*
X176382Y-36004D01*
X176401Y-36324D01*
X176428Y-36642D01*
X176462Y-36960D01*
X176504Y-37277D01*
X176554Y-37593D01*
X176611Y-37908D01*
X176675Y-38221D01*
X176747Y-38533D01*
X176826Y-38843D01*
X176913Y-39150D01*
X177007Y-39456D01*
X177108Y-39759D01*
X177217Y-40060D01*
X177332Y-40358D01*
X177455Y-40654D01*
X177585Y-40946D01*
X177722Y-41235D01*
X177721Y-41236D02*
X177760Y-41344D01*
X177803Y-41451D01*
X177849Y-41556D01*
X177900Y-41660D01*
X177953Y-41762D01*
X178010Y-41862D01*
X178071Y-41960D01*
X178135Y-42055D01*
X178202Y-42149D01*
X178273Y-42240D01*
X178346Y-42329D01*
X178423Y-42415D01*
X178502Y-42498D01*
X178584Y-42579D01*
X178669Y-42657D01*
X178757Y-42731D01*
X178847Y-42803D01*
X178940Y-42872D01*
X179034Y-42937D01*
X179131Y-42999D01*
X179231Y-43057D01*
X179332Y-43113D01*
X179434Y-43164D01*
X179539Y-43212D01*
X179645Y-43257D01*
X179753Y-43298D01*
X179862Y-43335D01*
X179972Y-43368D01*
X180084Y-43397D01*
X180196Y-43423D01*
X180309Y-43445D01*
X180423Y-43462D01*
X180537Y-43476D01*
X180652Y-43486D01*
X180767Y-43492D01*
X180882Y-43494D01*
X184043Y-41235D02*
X184180Y-40946D01*
X184310Y-40654D01*
X184433Y-40358D01*
X184548Y-40060D01*
X184657Y-39759D01*
X184758Y-39456D01*
X184852Y-39150D01*
X184939Y-38843D01*
X185018Y-38533D01*
X185090Y-38221D01*
X185154Y-37908D01*
X185211Y-37593D01*
X185261Y-37277D01*
X185303Y-36960D01*
X185337Y-36642D01*
X185364Y-36324D01*
X185383Y-36004D01*
X185394Y-35685D01*
X185398Y-35365D01*
X184043Y-41235D02*
X184004Y-41343D01*
X183961Y-41450D01*
X183915Y-41555D01*
X183864Y-41659D01*
X183811Y-41761D01*
X183754Y-41861D01*
X183693Y-41959D01*
X183629Y-42054D01*
X183562Y-42148D01*
X183491Y-42239D01*
X183418Y-42328D01*
X183341Y-42414D01*
X183262Y-42497D01*
X183180Y-42578D01*
X183095Y-42656D01*
X183007Y-42730D01*
X182917Y-42802D01*
X182824Y-42871D01*
X182730Y-42936D01*
X182633Y-42998D01*
X182533Y-43056D01*
X182432Y-43112D01*
X182329Y-43163D01*
X182225Y-43211D01*
X182119Y-43256D01*
X182011Y-43297D01*
X181902Y-43334D01*
X181792Y-43367D01*
X181680Y-43396D01*
X181568Y-43422D01*
X181455Y-43444D01*
X181341Y-43461D01*
X181227Y-43475D01*
X181112Y-43485D01*
X180997Y-43491D01*
X180882Y-43493D01*
X177270Y-39881D02*
X184495Y-30849D01*
X191998Y-35365D02*
X192002Y-35045D01*
X192013Y-34726D01*
X192032Y-34406D01*
X192059Y-34088D01*
X192093Y-33770D01*
X192135Y-33453D01*
X192185Y-33137D01*
X192242Y-32822D01*
X192306Y-32509D01*
X192378Y-32197D01*
X192457Y-31887D01*
X192544Y-31580D01*
X192638Y-31274D01*
X192739Y-30971D01*
X192848Y-30670D01*
X192963Y-30372D01*
X193086Y-30076D01*
X193216Y-29784D01*
X193353Y-29495D01*
X193354Y-29494D02*
X193393Y-29386D01*
X193436Y-29279D01*
X193482Y-29174D01*
X193532Y-29071D01*
X193586Y-28969D01*
X193643Y-28869D01*
X193704Y-28771D01*
X193768Y-28675D01*
X193835Y-28582D01*
X193905Y-28491D01*
X193979Y-28402D01*
X194055Y-28316D01*
X194135Y-28233D01*
X194217Y-28152D01*
X194302Y-28074D01*
X194389Y-28000D01*
X194480Y-27928D01*
X194572Y-27859D01*
X194667Y-27794D01*
X194764Y-27732D01*
X194863Y-27673D01*
X194964Y-27618D01*
X195067Y-27567D01*
X195172Y-27519D01*
X195278Y-27474D01*
X195385Y-27433D01*
X195494Y-27396D01*
X195605Y-27363D01*
X195716Y-27334D01*
X195828Y-27308D01*
X195941Y-27286D01*
X196055Y-27269D01*
X196169Y-27255D01*
X196284Y-27245D01*
X196399Y-27239D01*
X196514Y-27237D01*
X196629Y-27239D01*
X196744Y-27245D01*
X196859Y-27255D01*
X196973Y-27269D01*
X197087Y-27286D01*
X197200Y-27308D01*
X197312Y-27334D01*
X197424Y-27363D01*
X197534Y-27396D01*
X197643Y-27433D01*
X197751Y-27474D01*
X197857Y-27519D01*
X197962Y-27567D01*
X198064Y-27618D01*
X198166Y-27674D01*
X198265Y-27732D01*
X198362Y-27794D01*
X198457Y-27860D01*
X198549Y-27928D01*
X198639Y-28000D01*
X198727Y-28074D01*
X198812Y-28152D01*
X198894Y-28233D01*
X198973Y-28316D01*
X199050Y-28402D01*
X199123Y-28491D01*
X199194Y-28582D01*
X199261Y-28676D01*
X199325Y-28771D01*
X199386Y-28869D01*
X199443Y-28969D01*
X199496Y-29071D01*
X199547Y-29175D01*
X199593Y-29280D01*
X199636Y-29387D01*
X199675Y-29495D01*
X199674Y-29495D02*
X199811Y-29784D01*
X199941Y-30076D01*
X200064Y-30372D01*
X200179Y-30670D01*
X200288Y-30971D01*
X200389Y-31274D01*
X200483Y-31580D01*
X200570Y-31887D01*
X200649Y-32197D01*
X200721Y-32509D01*
X200785Y-32822D01*
X200842Y-33137D01*
X200892Y-33453D01*
X200934Y-33770D01*
X200968Y-34088D01*
X200995Y-34406D01*
X201014Y-34726D01*
X201025Y-35045D01*
X201029Y-35365D01*
X191998Y-35365D02*
X192002Y-35685D01*
X192013Y-36004D01*
X192032Y-36324D01*
X192059Y-36642D01*
X192093Y-36960D01*
X192135Y-37277D01*
X192185Y-37593D01*
X192242Y-37908D01*
X192306Y-38221D01*
X192378Y-38533D01*
X192457Y-38843D01*
X192544Y-39150D01*
X192638Y-39456D01*
X192739Y-39759D01*
X192848Y-40060D01*
X192963Y-40358D01*
X193086Y-40654D01*
X193216Y-40946D01*
X193353Y-41235D01*
X193353Y-41236D02*
X193392Y-41344D01*
X193435Y-41451D01*
X193481Y-41556D01*
X193532Y-41660D01*
X193585Y-41762D01*
X193642Y-41862D01*
X193703Y-41960D01*
X193767Y-42055D01*
X193834Y-42149D01*
X193905Y-42240D01*
X193978Y-42329D01*
X194055Y-42415D01*
X194134Y-42498D01*
X194216Y-42579D01*
X194301Y-42657D01*
X194389Y-42731D01*
X194479Y-42803D01*
X194572Y-42872D01*
X194666Y-42937D01*
X194763Y-42999D01*
X194863Y-43057D01*
X194964Y-43113D01*
X195066Y-43164D01*
X195171Y-43212D01*
X195277Y-43257D01*
X195385Y-43298D01*
X195494Y-43335D01*
X195604Y-43368D01*
X195716Y-43397D01*
X195828Y-43423D01*
X195941Y-43445D01*
X196055Y-43462D01*
X196169Y-43476D01*
X196284Y-43486D01*
X196399Y-43492D01*
X196514Y-43494D01*
X199674Y-41235D02*
X199811Y-40946D01*
X199941Y-40654D01*
X200064Y-40358D01*
X200179Y-40060D01*
X200288Y-39759D01*
X200389Y-39456D01*
X200483Y-39150D01*
X200570Y-38843D01*
X200649Y-38533D01*
X200721Y-38221D01*
X200785Y-37908D01*
X200842Y-37593D01*
X200892Y-37277D01*
X200934Y-36960D01*
X200968Y-36642D01*
X200995Y-36324D01*
X201014Y-36004D01*
X201025Y-35685D01*
X201029Y-35365D01*
X199675Y-41235D02*
X199636Y-41343D01*
X199593Y-41450D01*
X199547Y-41555D01*
X199496Y-41659D01*
X199443Y-41761D01*
X199386Y-41861D01*
X199325Y-41959D01*
X199261Y-42054D01*
X199194Y-42148D01*
X199123Y-42239D01*
X199050Y-42328D01*
X198973Y-42414D01*
X198894Y-42497D01*
X198812Y-42578D01*
X198727Y-42656D01*
X198639Y-42730D01*
X198549Y-42802D01*
X198456Y-42871D01*
X198362Y-42936D01*
X198265Y-42998D01*
X198165Y-43056D01*
X198064Y-43112D01*
X197961Y-43163D01*
X197857Y-43211D01*
X197751Y-43256D01*
X197643Y-43297D01*
X197534Y-43334D01*
X197424Y-43367D01*
X197312Y-43396D01*
X197200Y-43422D01*
X197087Y-43444D01*
X196973Y-43461D01*
X196859Y-43475D01*
X196744Y-43485D01*
X196629Y-43491D01*
X196514Y-43493D01*
X192901Y-39881D02*
X200126Y-30849D01*
D12*
X0Y75000D02*
X-15000Y75000D01*
X0Y75000D02*
X345000Y75000D01*
X335000Y100000D02*
X15000Y100000D01*
X345000Y100000D02*
X345000Y75000D01*
X0Y75000D02*
X0Y100000D01*
D10*
X355000Y0D02*
X444500Y0D01*
X444500Y225000D02*
X355000Y225000D01*
X425000Y224350D02*
X425000Y650D01*
X421808Y26000D01*
X428192Y26000D01*
X425000Y650D01*
X423700Y26000D01*
X426300Y26000D02*
X425000Y650D01*
X422400Y26000D01*
X427600Y26000D02*
X425000Y650D01*
X421808Y199000D02*
X425000Y224350D01*
X421808Y199000D02*
X428192Y199000D01*
X425000Y224350D01*
X423700Y199000D01*
X426300Y199000D02*
X425000Y224350D01*
X422400Y199000D01*
X427600Y199000D02*
X425000Y224350D01*
D11*
X406301Y90383D02*
X406176Y90381D01*
X406051Y90375D01*
X405926Y90366D01*
X405802Y90352D01*
X405678Y90335D01*
X405554Y90314D01*
X405432Y90289D01*
X405310Y90260D01*
X405189Y90228D01*
X405069Y90192D01*
X404950Y90152D01*
X404833Y90109D01*
X404717Y90062D01*
X404602Y90011D01*
X404490Y89957D01*
X404378Y89899D01*
X404269Y89839D01*
X404162Y89774D01*
X404056Y89707D01*
X403953Y89636D01*
X403852Y89562D01*
X403753Y89485D01*
X403657Y89405D01*
X403563Y89322D01*
X403472Y89237D01*
X403383Y89148D01*
X403298Y89057D01*
X403215Y88963D01*
X403135Y88867D01*
X403058Y88768D01*
X402984Y88667D01*
X402913Y88564D01*
X402846Y88458D01*
X402781Y88351D01*
X402721Y88242D01*
X402663Y88130D01*
X402609Y88018D01*
X402558Y87903D01*
X402511Y87787D01*
X402468Y87670D01*
X402428Y87551D01*
X402392Y87431D01*
X402360Y87310D01*
X402331Y87188D01*
X402306Y87066D01*
X402285Y86942D01*
X402268Y86818D01*
X402254Y86694D01*
X402245Y86569D01*
X402239Y86444D01*
X402237Y86319D01*
X402239Y86176D01*
X402245Y86034D01*
X402255Y85891D01*
X402268Y85749D01*
X402286Y85608D01*
X402307Y85466D01*
X402332Y85326D01*
X402361Y85186D01*
X402394Y85047D01*
X402431Y84909D01*
X402471Y84772D01*
X402515Y84637D01*
X402563Y84502D01*
X402615Y84369D01*
X402670Y84237D01*
X402729Y84107D01*
X402791Y83979D01*
X402857Y83852D01*
X402926Y83727D01*
X402998Y83604D01*
X403074Y83483D01*
X403153Y83365D01*
X403236Y83248D01*
X403321Y83134D01*
X403410Y83022D01*
X403501Y82913D01*
X403596Y82806D01*
X403693Y82701D01*
X403794Y82600D01*
X403897Y82501D01*
X404002Y82405D01*
X404111Y82312D01*
X404222Y82222D01*
X404335Y82135D01*
X404450Y82051D01*
X404568Y81971D01*
X404688Y81893D01*
X404810Y81819D01*
X404934Y81749D01*
X405060Y81681D01*
X405188Y81618D01*
X405317Y81557D01*
X405448Y81500D01*
X405580Y81447D01*
X405714Y81398D01*
X405849Y81352D01*
X409462Y89028D02*
X409370Y89122D01*
X409276Y89212D01*
X409179Y89300D01*
X409079Y89385D01*
X408977Y89467D01*
X408872Y89545D01*
X408765Y89621D01*
X408656Y89693D01*
X408545Y89762D01*
X408431Y89828D01*
X408316Y89890D01*
X408199Y89949D01*
X408080Y90004D01*
X407960Y90055D01*
X407838Y90103D01*
X407715Y90148D01*
X407591Y90188D01*
X407465Y90225D01*
X407338Y90258D01*
X407211Y90287D01*
X407082Y90313D01*
X406953Y90334D01*
X406823Y90352D01*
X406693Y90365D01*
X406563Y90375D01*
X406432Y90381D01*
X406301Y90383D01*
X409462Y89028D02*
X418493Y81352D01*
X418493Y90383D01*
X406301Y106014D02*
X406176Y106012D01*
X406051Y106006D01*
X405926Y105997D01*
X405802Y105983D01*
X405678Y105966D01*
X405554Y105945D01*
X405432Y105920D01*
X405310Y105891D01*
X405189Y105859D01*
X405069Y105823D01*
X404950Y105783D01*
X404833Y105740D01*
X404717Y105693D01*
X404602Y105642D01*
X404490Y105588D01*
X404378Y105530D01*
X404269Y105470D01*
X404162Y105405D01*
X404056Y105338D01*
X403953Y105267D01*
X403852Y105193D01*
X403753Y105116D01*
X403657Y105036D01*
X403563Y104953D01*
X403472Y104868D01*
X403383Y104779D01*
X403298Y104688D01*
X403215Y104594D01*
X403135Y104498D01*
X403058Y104399D01*
X402984Y104298D01*
X402913Y104195D01*
X402846Y104089D01*
X402781Y103982D01*
X402721Y103873D01*
X402663Y103761D01*
X402609Y103649D01*
X402558Y103534D01*
X402511Y103418D01*
X402468Y103301D01*
X402428Y103182D01*
X402392Y103062D01*
X402360Y102941D01*
X402331Y102819D01*
X402306Y102697D01*
X402285Y102573D01*
X402268Y102449D01*
X402254Y102325D01*
X402245Y102200D01*
X402239Y102075D01*
X402237Y101950D01*
X402239Y101807D01*
X402245Y101665D01*
X402255Y101522D01*
X402268Y101380D01*
X402286Y101239D01*
X402307Y101097D01*
X402332Y100957D01*
X402361Y100817D01*
X402394Y100678D01*
X402431Y100540D01*
X402471Y100403D01*
X402515Y100268D01*
X402563Y100133D01*
X402615Y100000D01*
X402670Y99868D01*
X402729Y99738D01*
X402791Y99610D01*
X402857Y99483D01*
X402926Y99358D01*
X402998Y99235D01*
X403074Y99114D01*
X403153Y98996D01*
X403236Y98879D01*
X403321Y98765D01*
X403410Y98653D01*
X403501Y98544D01*
X403596Y98437D01*
X403693Y98332D01*
X403794Y98231D01*
X403897Y98132D01*
X404002Y98036D01*
X404111Y97943D01*
X404222Y97853D01*
X404335Y97766D01*
X404450Y97682D01*
X404568Y97602D01*
X404688Y97524D01*
X404810Y97450D01*
X404934Y97380D01*
X405060Y97312D01*
X405188Y97249D01*
X405317Y97188D01*
X405448Y97131D01*
X405580Y97078D01*
X405714Y97029D01*
X405849Y96983D01*
X409462Y104659D02*
X409370Y104753D01*
X409276Y104843D01*
X409179Y104931D01*
X409079Y105016D01*
X408977Y105098D01*
X408872Y105176D01*
X408765Y105252D01*
X408656Y105324D01*
X408545Y105393D01*
X408431Y105459D01*
X408316Y105521D01*
X408199Y105580D01*
X408080Y105635D01*
X407960Y105686D01*
X407838Y105734D01*
X407715Y105779D01*
X407591Y105819D01*
X407465Y105856D01*
X407338Y105889D01*
X407211Y105918D01*
X407082Y105944D01*
X406953Y105965D01*
X406823Y105983D01*
X406693Y105996D01*
X406563Y106006D01*
X406432Y106012D01*
X406301Y106014D01*
X409462Y104660D02*
X418493Y96983D01*
X418493Y106014D01*
X418493Y111989D02*
X417590Y111989D01*
X417590Y112892D01*
X418493Y112892D01*
X418493Y111989D01*
X418493Y118867D02*
X418493Y124286D01*
X418491Y124404D01*
X418485Y124522D01*
X418476Y124640D01*
X418462Y124757D01*
X418445Y124874D01*
X418424Y124991D01*
X418399Y125106D01*
X418370Y125221D01*
X418337Y125335D01*
X418301Y125447D01*
X418261Y125558D01*
X418218Y125668D01*
X418171Y125777D01*
X418121Y125884D01*
X418066Y125989D01*
X418009Y126092D01*
X417948Y126193D01*
X417884Y126293D01*
X417817Y126390D01*
X417747Y126485D01*
X417673Y126577D01*
X417597Y126668D01*
X417517Y126755D01*
X417435Y126840D01*
X417350Y126922D01*
X417263Y127002D01*
X417172Y127078D01*
X417080Y127152D01*
X416985Y127222D01*
X416888Y127289D01*
X416788Y127353D01*
X416687Y127414D01*
X416584Y127471D01*
X416479Y127526D01*
X416372Y127576D01*
X416263Y127623D01*
X416153Y127666D01*
X416042Y127706D01*
X415930Y127742D01*
X415816Y127775D01*
X415701Y127804D01*
X415586Y127829D01*
X415469Y127850D01*
X415352Y127867D01*
X415235Y127881D01*
X415117Y127890D01*
X414999Y127896D01*
X414881Y127898D01*
X413074Y127898D01*
X412956Y127896D01*
X412838Y127890D01*
X412720Y127881D01*
X412603Y127867D01*
X412486Y127850D01*
X412369Y127829D01*
X412254Y127804D01*
X412139Y127775D01*
X412025Y127742D01*
X411913Y127706D01*
X411802Y127666D01*
X411692Y127623D01*
X411583Y127576D01*
X411476Y127526D01*
X411371Y127471D01*
X411268Y127414D01*
X411167Y127353D01*
X411067Y127289D01*
X410970Y127222D01*
X410875Y127152D01*
X410783Y127078D01*
X410692Y127002D01*
X410605Y126922D01*
X410520Y126840D01*
X410438Y126755D01*
X410358Y126668D01*
X410282Y126577D01*
X410208Y126485D01*
X410138Y126390D01*
X410071Y126293D01*
X410007Y126193D01*
X409946Y126092D01*
X409889Y125989D01*
X409834Y125884D01*
X409784Y125777D01*
X409737Y125668D01*
X409694Y125558D01*
X409654Y125447D01*
X409618Y125335D01*
X409585Y125221D01*
X409556Y125106D01*
X409531Y124991D01*
X409510Y124874D01*
X409493Y124757D01*
X409479Y124640D01*
X409470Y124522D01*
X409464Y124404D01*
X409462Y124286D01*
X409462Y118867D01*
X402237Y118867D01*
X402237Y127898D01*
X404495Y135853D02*
X404784Y135716D01*
X405076Y135586D01*
X405372Y135463D01*
X405670Y135348D01*
X405971Y135239D01*
X406274Y135138D01*
X406580Y135044D01*
X406887Y134957D01*
X407197Y134878D01*
X407509Y134806D01*
X407822Y134742D01*
X408137Y134685D01*
X408453Y134635D01*
X408770Y134593D01*
X409088Y134559D01*
X409406Y134532D01*
X409726Y134513D01*
X410045Y134502D01*
X410365Y134498D01*
X404494Y135854D02*
X404386Y135893D01*
X404279Y135936D01*
X404174Y135982D01*
X404071Y136032D01*
X403969Y136086D01*
X403869Y136143D01*
X403771Y136204D01*
X403675Y136268D01*
X403582Y136335D01*
X403491Y136405D01*
X403402Y136479D01*
X403316Y136555D01*
X403233Y136635D01*
X403152Y136717D01*
X403074Y136802D01*
X403000Y136889D01*
X402928Y136980D01*
X402859Y137072D01*
X402794Y137167D01*
X402732Y137264D01*
X402673Y137363D01*
X402618Y137464D01*
X402567Y137567D01*
X402519Y137672D01*
X402474Y137778D01*
X402433Y137885D01*
X402396Y137994D01*
X402363Y138105D01*
X402334Y138216D01*
X402308Y138328D01*
X402286Y138441D01*
X402269Y138555D01*
X402255Y138669D01*
X402245Y138784D01*
X402239Y138899D01*
X402237Y139014D01*
X402239Y139129D01*
X402245Y139244D01*
X402255Y139359D01*
X402269Y139473D01*
X402286Y139587D01*
X402308Y139700D01*
X402334Y139812D01*
X402363Y139924D01*
X402396Y140034D01*
X402433Y140143D01*
X402474Y140251D01*
X402519Y140357D01*
X402567Y140462D01*
X402618Y140564D01*
X402674Y140666D01*
X402732Y140765D01*
X402794Y140862D01*
X402860Y140957D01*
X402928Y141049D01*
X403000Y141139D01*
X403074Y141227D01*
X403152Y141312D01*
X403233Y141394D01*
X403316Y141473D01*
X403402Y141550D01*
X403491Y141623D01*
X403582Y141694D01*
X403676Y141761D01*
X403771Y141825D01*
X403869Y141886D01*
X403969Y141943D01*
X404071Y141996D01*
X404175Y142047D01*
X404280Y142093D01*
X404387Y142136D01*
X404495Y142175D01*
X404495Y142174D02*
X404784Y142311D01*
X405076Y142441D01*
X405372Y142564D01*
X405670Y142679D01*
X405971Y142788D01*
X406274Y142889D01*
X406580Y142983D01*
X406887Y143070D01*
X407197Y143149D01*
X407509Y143221D01*
X407822Y143285D01*
X408137Y143342D01*
X408453Y143392D01*
X408770Y143434D01*
X409088Y143468D01*
X409406Y143495D01*
X409726Y143514D01*
X410045Y143525D01*
X410365Y143529D01*
X410365Y134498D02*
X410685Y134502D01*
X411004Y134513D01*
X411324Y134532D01*
X411642Y134559D01*
X411960Y134593D01*
X412277Y134635D01*
X412593Y134685D01*
X412908Y134742D01*
X413221Y134806D01*
X413533Y134878D01*
X413843Y134957D01*
X414150Y135044D01*
X414456Y135138D01*
X414759Y135239D01*
X415060Y135348D01*
X415358Y135463D01*
X415654Y135586D01*
X415946Y135716D01*
X416235Y135853D01*
X416236Y135853D02*
X416344Y135892D01*
X416451Y135935D01*
X416556Y135981D01*
X416660Y136032D01*
X416762Y136085D01*
X416862Y136142D01*
X416960Y136203D01*
X417055Y136267D01*
X417149Y136334D01*
X417240Y136405D01*
X417329Y136478D01*
X417415Y136555D01*
X417498Y136634D01*
X417579Y136716D01*
X417657Y136801D01*
X417731Y136889D01*
X417803Y136979D01*
X417872Y137072D01*
X417937Y137166D01*
X417999Y137263D01*
X418057Y137363D01*
X418113Y137464D01*
X418164Y137566D01*
X418212Y137671D01*
X418257Y137777D01*
X418298Y137885D01*
X418335Y137994D01*
X418368Y138104D01*
X418397Y138216D01*
X418423Y138328D01*
X418445Y138441D01*
X418462Y138555D01*
X418476Y138669D01*
X418486Y138784D01*
X418492Y138899D01*
X418494Y139014D01*
X416235Y142174D02*
X415946Y142311D01*
X415654Y142441D01*
X415358Y142564D01*
X415060Y142679D01*
X414759Y142788D01*
X414456Y142889D01*
X414150Y142983D01*
X413843Y143070D01*
X413533Y143149D01*
X413221Y143221D01*
X412908Y143285D01*
X412593Y143342D01*
X412277Y143392D01*
X411960Y143434D01*
X411642Y143468D01*
X411324Y143495D01*
X411004Y143514D01*
X410685Y143525D01*
X410365Y143529D01*
X416235Y142175D02*
X416343Y142136D01*
X416450Y142093D01*
X416555Y142047D01*
X416659Y141996D01*
X416761Y141943D01*
X416861Y141886D01*
X416959Y141825D01*
X417054Y141761D01*
X417148Y141694D01*
X417239Y141623D01*
X417328Y141550D01*
X417414Y141473D01*
X417497Y141394D01*
X417578Y141312D01*
X417656Y141227D01*
X417730Y141139D01*
X417802Y141049D01*
X417871Y140956D01*
X417936Y140862D01*
X417998Y140765D01*
X418056Y140665D01*
X418112Y140564D01*
X418163Y140461D01*
X418211Y140357D01*
X418256Y140251D01*
X418297Y140143D01*
X418334Y140034D01*
X418367Y139924D01*
X418396Y139812D01*
X418422Y139700D01*
X418444Y139587D01*
X418461Y139473D01*
X418475Y139359D01*
X418485Y139244D01*
X418491Y139129D01*
X418493Y139014D01*
X414881Y135401D02*
X405849Y142626D01*
M02*
