G04 EAGLE Gerber RS-274X export*
G75*
%MOMM*%
%FSLAX34Y34*%
%LPD*%
%IN*%
%IPPOS*%
%AMOC8*
5,1,8,0,0,1.08239X$1,22.5*%
G01*
%ADD10C,0.254000*%


D10*
X10000Y30000D02*
X10323Y27613D01*
X10852Y25263D01*
X11584Y22968D01*
X12514Y20745D01*
X13633Y18612D01*
X14934Y16585D01*
X16407Y14679D01*
X18041Y12908D01*
X19822Y11287D01*
X21738Y9827D01*
X23775Y8539D01*
X25915Y7434D01*
X28144Y6520D01*
X30444Y5803D01*
X32797Y5290D01*
X35187Y4984D01*
X37594Y4887D01*
X40000Y5000D01*
X1530000Y5000D01*
X1531535Y4849D01*
X1533077Y4832D01*
X1534615Y4949D01*
X1536136Y5200D01*
X1537630Y5583D01*
X1539085Y6095D01*
X1540490Y6731D01*
X1541834Y7487D01*
X1543107Y8358D01*
X1544299Y9336D01*
X1545401Y10415D01*
X1546405Y11585D01*
X1547304Y12838D01*
X1548090Y14165D01*
X1548757Y15556D01*
X1549300Y16999D01*
X1549716Y18484D01*
X1550000Y20000D01*
X1550000Y40000D01*
X1549905Y42179D01*
X1549620Y44341D01*
X1549148Y46470D01*
X1548492Y48551D01*
X1547658Y50565D01*
X1546651Y52500D01*
X1545479Y54339D01*
X1544151Y56070D01*
X1542678Y57678D01*
X1541070Y59151D01*
X1539339Y60479D01*
X1537500Y61651D01*
X1535565Y62658D01*
X1533551Y63492D01*
X1531470Y64148D01*
X1529341Y64620D01*
X1527179Y64905D01*
X1525000Y65000D01*
X40000Y65000D01*
X37594Y65113D01*
X35187Y65016D01*
X32797Y64710D01*
X30444Y64197D01*
X28144Y63480D01*
X25915Y62566D01*
X23775Y61461D01*
X21738Y60173D01*
X19822Y58713D01*
X18041Y57092D01*
X16407Y55321D01*
X14934Y53415D01*
X13633Y51388D01*
X12514Y49255D01*
X11584Y47032D01*
X10852Y44737D01*
X10323Y42387D01*
X10000Y40000D01*
X10000Y30000D01*
X1535000Y34464D02*
X1534924Y33396D01*
X1534771Y32335D01*
X1534543Y31288D01*
X1534241Y30260D01*
X1533867Y29256D01*
X1533422Y28281D01*
X1532908Y27341D01*
X1532329Y26440D01*
X1531687Y25582D01*
X1530985Y24772D01*
X1530228Y24015D01*
X1529418Y23313D01*
X1528560Y22671D01*
X1527659Y22092D01*
X1526719Y21578D01*
X1525744Y21133D01*
X1524740Y20759D01*
X1523712Y20457D01*
X1522665Y20229D01*
X1521604Y20076D01*
X1520536Y20000D01*
X1519464Y20000D01*
X1518396Y20076D01*
X1517335Y20229D01*
X1516288Y20457D01*
X1515260Y20759D01*
X1514256Y21133D01*
X1513281Y21578D01*
X1512341Y22092D01*
X1511440Y22671D01*
X1510582Y23313D01*
X1509772Y24015D01*
X1509015Y24772D01*
X1508313Y25582D01*
X1507671Y26440D01*
X1507092Y27341D01*
X1506578Y28281D01*
X1506133Y29256D01*
X1505759Y30260D01*
X1505457Y31288D01*
X1505229Y32335D01*
X1505076Y33396D01*
X1505000Y34464D01*
X1505000Y35536D01*
X1505076Y36604D01*
X1505229Y37665D01*
X1505457Y38712D01*
X1505759Y39740D01*
X1506133Y40744D01*
X1506578Y41719D01*
X1507092Y42659D01*
X1507671Y43560D01*
X1508313Y44418D01*
X1509015Y45228D01*
X1509772Y45985D01*
X1510582Y46687D01*
X1511440Y47329D01*
X1512341Y47908D01*
X1513281Y48422D01*
X1514256Y48867D01*
X1515260Y49241D01*
X1516288Y49543D01*
X1517335Y49771D01*
X1518396Y49924D01*
X1519464Y50000D01*
X1520536Y50000D01*
X1521604Y49924D01*
X1522665Y49771D01*
X1523712Y49543D01*
X1524740Y49241D01*
X1525744Y48867D01*
X1526719Y48422D01*
X1527659Y47908D01*
X1528560Y47329D01*
X1529418Y46687D01*
X1530228Y45985D01*
X1530985Y45228D01*
X1531687Y44418D01*
X1532329Y43560D01*
X1532908Y42659D01*
X1533422Y41719D01*
X1533867Y40744D01*
X1534241Y39740D01*
X1534543Y38712D01*
X1534771Y37665D01*
X1534924Y36604D01*
X1535000Y35536D01*
X1535000Y34464D01*
X1495000Y34464D02*
X1494924Y33396D01*
X1494771Y32335D01*
X1494543Y31288D01*
X1494241Y30260D01*
X1493867Y29256D01*
X1493422Y28281D01*
X1492908Y27341D01*
X1492329Y26440D01*
X1491687Y25582D01*
X1490985Y24772D01*
X1490228Y24015D01*
X1489418Y23313D01*
X1488560Y22671D01*
X1487659Y22092D01*
X1486719Y21578D01*
X1485744Y21133D01*
X1484740Y20759D01*
X1483712Y20457D01*
X1482665Y20229D01*
X1481604Y20076D01*
X1480536Y20000D01*
X1479464Y20000D01*
X1478396Y20076D01*
X1477335Y20229D01*
X1476288Y20457D01*
X1475260Y20759D01*
X1474256Y21133D01*
X1473281Y21578D01*
X1472341Y22092D01*
X1471440Y22671D01*
X1470582Y23313D01*
X1469772Y24015D01*
X1469015Y24772D01*
X1468313Y25582D01*
X1467671Y26440D01*
X1467092Y27341D01*
X1466578Y28281D01*
X1466133Y29256D01*
X1465759Y30260D01*
X1465457Y31288D01*
X1465229Y32335D01*
X1465076Y33396D01*
X1465000Y34464D01*
X1465000Y35536D01*
X1465076Y36604D01*
X1465229Y37665D01*
X1465457Y38712D01*
X1465759Y39740D01*
X1466133Y40744D01*
X1466578Y41719D01*
X1467092Y42659D01*
X1467671Y43560D01*
X1468313Y44418D01*
X1469015Y45228D01*
X1469772Y45985D01*
X1470582Y46687D01*
X1471440Y47329D01*
X1472341Y47908D01*
X1473281Y48422D01*
X1474256Y48867D01*
X1475260Y49241D01*
X1476288Y49543D01*
X1477335Y49771D01*
X1478396Y49924D01*
X1479464Y50000D01*
X1480536Y50000D01*
X1481604Y49924D01*
X1482665Y49771D01*
X1483712Y49543D01*
X1484740Y49241D01*
X1485744Y48867D01*
X1486719Y48422D01*
X1487659Y47908D01*
X1488560Y47329D01*
X1489418Y46687D01*
X1490228Y45985D01*
X1490985Y45228D01*
X1491687Y44418D01*
X1492329Y43560D01*
X1492908Y42659D01*
X1493422Y41719D01*
X1493867Y40744D01*
X1494241Y39740D01*
X1494543Y38712D01*
X1494771Y37665D01*
X1494924Y36604D01*
X1495000Y35536D01*
X1495000Y34464D01*
X1455000Y34464D02*
X1454924Y33396D01*
X1454771Y32335D01*
X1454543Y31288D01*
X1454241Y30260D01*
X1453867Y29256D01*
X1453422Y28281D01*
X1452908Y27341D01*
X1452329Y26440D01*
X1451687Y25582D01*
X1450985Y24772D01*
X1450228Y24015D01*
X1449418Y23313D01*
X1448560Y22671D01*
X1447659Y22092D01*
X1446719Y21578D01*
X1445744Y21133D01*
X1444740Y20759D01*
X1443712Y20457D01*
X1442665Y20229D01*
X1441604Y20076D01*
X1440536Y20000D01*
X1439464Y20000D01*
X1438396Y20076D01*
X1437335Y20229D01*
X1436288Y20457D01*
X1435260Y20759D01*
X1434256Y21133D01*
X1433281Y21578D01*
X1432341Y22092D01*
X1431440Y22671D01*
X1430582Y23313D01*
X1429772Y24015D01*
X1429015Y24772D01*
X1428313Y25582D01*
X1427671Y26440D01*
X1427092Y27341D01*
X1426578Y28281D01*
X1426133Y29256D01*
X1425759Y30260D01*
X1425457Y31288D01*
X1425229Y32335D01*
X1425076Y33396D01*
X1425000Y34464D01*
X1425000Y35536D01*
X1425076Y36604D01*
X1425229Y37665D01*
X1425457Y38712D01*
X1425759Y39740D01*
X1426133Y40744D01*
X1426578Y41719D01*
X1427092Y42659D01*
X1427671Y43560D01*
X1428313Y44418D01*
X1429015Y45228D01*
X1429772Y45985D01*
X1430582Y46687D01*
X1431440Y47329D01*
X1432341Y47908D01*
X1433281Y48422D01*
X1434256Y48867D01*
X1435260Y49241D01*
X1436288Y49543D01*
X1437335Y49771D01*
X1438396Y49924D01*
X1439464Y50000D01*
X1440536Y50000D01*
X1441604Y49924D01*
X1442665Y49771D01*
X1443712Y49543D01*
X1444740Y49241D01*
X1445744Y48867D01*
X1446719Y48422D01*
X1447659Y47908D01*
X1448560Y47329D01*
X1449418Y46687D01*
X1450228Y45985D01*
X1450985Y45228D01*
X1451687Y44418D01*
X1452329Y43560D01*
X1452908Y42659D01*
X1453422Y41719D01*
X1453867Y40744D01*
X1454241Y39740D01*
X1454543Y38712D01*
X1454771Y37665D01*
X1454924Y36604D01*
X1455000Y35536D01*
X1455000Y34464D01*
X1415000Y34464D02*
X1414924Y33396D01*
X1414771Y32335D01*
X1414543Y31288D01*
X1414241Y30260D01*
X1413867Y29256D01*
X1413422Y28281D01*
X1412908Y27341D01*
X1412329Y26440D01*
X1411687Y25582D01*
X1410985Y24772D01*
X1410228Y24015D01*
X1409418Y23313D01*
X1408560Y22671D01*
X1407659Y22092D01*
X1406719Y21578D01*
X1405744Y21133D01*
X1404740Y20759D01*
X1403712Y20457D01*
X1402665Y20229D01*
X1401604Y20076D01*
X1400536Y20000D01*
X1399464Y20000D01*
X1398396Y20076D01*
X1397335Y20229D01*
X1396288Y20457D01*
X1395260Y20759D01*
X1394256Y21133D01*
X1393281Y21578D01*
X1392341Y22092D01*
X1391440Y22671D01*
X1390582Y23313D01*
X1389772Y24015D01*
X1389015Y24772D01*
X1388313Y25582D01*
X1387671Y26440D01*
X1387092Y27341D01*
X1386578Y28281D01*
X1386133Y29256D01*
X1385759Y30260D01*
X1385457Y31288D01*
X1385229Y32335D01*
X1385076Y33396D01*
X1385000Y34464D01*
X1385000Y35536D01*
X1385076Y36604D01*
X1385229Y37665D01*
X1385457Y38712D01*
X1385759Y39740D01*
X1386133Y40744D01*
X1386578Y41719D01*
X1387092Y42659D01*
X1387671Y43560D01*
X1388313Y44418D01*
X1389015Y45228D01*
X1389772Y45985D01*
X1390582Y46687D01*
X1391440Y47329D01*
X1392341Y47908D01*
X1393281Y48422D01*
X1394256Y48867D01*
X1395260Y49241D01*
X1396288Y49543D01*
X1397335Y49771D01*
X1398396Y49924D01*
X1399464Y50000D01*
X1400536Y50000D01*
X1401604Y49924D01*
X1402665Y49771D01*
X1403712Y49543D01*
X1404740Y49241D01*
X1405744Y48867D01*
X1406719Y48422D01*
X1407659Y47908D01*
X1408560Y47329D01*
X1409418Y46687D01*
X1410228Y45985D01*
X1410985Y45228D01*
X1411687Y44418D01*
X1412329Y43560D01*
X1412908Y42659D01*
X1413422Y41719D01*
X1413867Y40744D01*
X1414241Y39740D01*
X1414543Y38712D01*
X1414771Y37665D01*
X1414924Y36604D01*
X1415000Y35536D01*
X1415000Y34464D01*
X1375000Y34464D02*
X1374924Y33396D01*
X1374771Y32335D01*
X1374543Y31288D01*
X1374241Y30260D01*
X1373867Y29256D01*
X1373422Y28281D01*
X1372908Y27341D01*
X1372329Y26440D01*
X1371687Y25582D01*
X1370985Y24772D01*
X1370228Y24015D01*
X1369418Y23313D01*
X1368560Y22671D01*
X1367659Y22092D01*
X1366719Y21578D01*
X1365744Y21133D01*
X1364740Y20759D01*
X1363712Y20457D01*
X1362665Y20229D01*
X1361604Y20076D01*
X1360536Y20000D01*
X1359464Y20000D01*
X1358396Y20076D01*
X1357335Y20229D01*
X1356288Y20457D01*
X1355260Y20759D01*
X1354256Y21133D01*
X1353281Y21578D01*
X1352341Y22092D01*
X1351440Y22671D01*
X1350582Y23313D01*
X1349772Y24015D01*
X1349015Y24772D01*
X1348313Y25582D01*
X1347671Y26440D01*
X1347092Y27341D01*
X1346578Y28281D01*
X1346133Y29256D01*
X1345759Y30260D01*
X1345457Y31288D01*
X1345229Y32335D01*
X1345076Y33396D01*
X1345000Y34464D01*
X1345000Y35536D01*
X1345076Y36604D01*
X1345229Y37665D01*
X1345457Y38712D01*
X1345759Y39740D01*
X1346133Y40744D01*
X1346578Y41719D01*
X1347092Y42659D01*
X1347671Y43560D01*
X1348313Y44418D01*
X1349015Y45228D01*
X1349772Y45985D01*
X1350582Y46687D01*
X1351440Y47329D01*
X1352341Y47908D01*
X1353281Y48422D01*
X1354256Y48867D01*
X1355260Y49241D01*
X1356288Y49543D01*
X1357335Y49771D01*
X1358396Y49924D01*
X1359464Y50000D01*
X1360536Y50000D01*
X1361604Y49924D01*
X1362665Y49771D01*
X1363712Y49543D01*
X1364740Y49241D01*
X1365744Y48867D01*
X1366719Y48422D01*
X1367659Y47908D01*
X1368560Y47329D01*
X1369418Y46687D01*
X1370228Y45985D01*
X1370985Y45228D01*
X1371687Y44418D01*
X1372329Y43560D01*
X1372908Y42659D01*
X1373422Y41719D01*
X1373867Y40744D01*
X1374241Y39740D01*
X1374543Y38712D01*
X1374771Y37665D01*
X1374924Y36604D01*
X1375000Y35536D01*
X1375000Y34464D01*
X55000Y34464D02*
X54924Y33396D01*
X54771Y32335D01*
X54543Y31288D01*
X54241Y30260D01*
X53867Y29256D01*
X53422Y28281D01*
X52908Y27341D01*
X52329Y26440D01*
X51687Y25582D01*
X50985Y24772D01*
X50228Y24015D01*
X49418Y23313D01*
X48560Y22671D01*
X47659Y22092D01*
X46719Y21578D01*
X45744Y21133D01*
X44740Y20759D01*
X43712Y20457D01*
X42665Y20229D01*
X41604Y20076D01*
X40536Y20000D01*
X39464Y20000D01*
X38396Y20076D01*
X37335Y20229D01*
X36288Y20457D01*
X35260Y20759D01*
X34256Y21133D01*
X33281Y21578D01*
X32341Y22092D01*
X31440Y22671D01*
X30582Y23313D01*
X29772Y24015D01*
X29015Y24772D01*
X28313Y25582D01*
X27671Y26440D01*
X27092Y27341D01*
X26578Y28281D01*
X26133Y29256D01*
X25759Y30260D01*
X25457Y31288D01*
X25229Y32335D01*
X25076Y33396D01*
X25000Y34464D01*
X25000Y35536D01*
X25076Y36604D01*
X25229Y37665D01*
X25457Y38712D01*
X25759Y39740D01*
X26133Y40744D01*
X26578Y41719D01*
X27092Y42659D01*
X27671Y43560D01*
X28313Y44418D01*
X29015Y45228D01*
X29772Y45985D01*
X30582Y46687D01*
X31440Y47329D01*
X32341Y47908D01*
X33281Y48422D01*
X34256Y48867D01*
X35260Y49241D01*
X36288Y49543D01*
X37335Y49771D01*
X38396Y49924D01*
X39464Y50000D01*
X40536Y50000D01*
X41604Y49924D01*
X42665Y49771D01*
X43712Y49543D01*
X44740Y49241D01*
X45744Y48867D01*
X46719Y48422D01*
X47659Y47908D01*
X48560Y47329D01*
X49418Y46687D01*
X50228Y45985D01*
X50985Y45228D01*
X51687Y44418D01*
X52329Y43560D01*
X52908Y42659D01*
X53422Y41719D01*
X53867Y40744D01*
X54241Y39740D01*
X54543Y38712D01*
X54771Y37665D01*
X54924Y36604D01*
X55000Y35536D01*
X55000Y34464D01*
X95000Y34464D02*
X94924Y33396D01*
X94771Y32335D01*
X94543Y31288D01*
X94241Y30260D01*
X93867Y29256D01*
X93422Y28281D01*
X92908Y27341D01*
X92329Y26440D01*
X91687Y25582D01*
X90985Y24772D01*
X90228Y24015D01*
X89418Y23313D01*
X88560Y22671D01*
X87659Y22092D01*
X86719Y21578D01*
X85744Y21133D01*
X84740Y20759D01*
X83712Y20457D01*
X82665Y20229D01*
X81604Y20076D01*
X80536Y20000D01*
X79464Y20000D01*
X78396Y20076D01*
X77335Y20229D01*
X76288Y20457D01*
X75260Y20759D01*
X74256Y21133D01*
X73281Y21578D01*
X72341Y22092D01*
X71440Y22671D01*
X70582Y23313D01*
X69772Y24015D01*
X69015Y24772D01*
X68313Y25582D01*
X67671Y26440D01*
X67092Y27341D01*
X66578Y28281D01*
X66133Y29256D01*
X65759Y30260D01*
X65457Y31288D01*
X65229Y32335D01*
X65076Y33396D01*
X65000Y34464D01*
X65000Y35536D01*
X65076Y36604D01*
X65229Y37665D01*
X65457Y38712D01*
X65759Y39740D01*
X66133Y40744D01*
X66578Y41719D01*
X67092Y42659D01*
X67671Y43560D01*
X68313Y44418D01*
X69015Y45228D01*
X69772Y45985D01*
X70582Y46687D01*
X71440Y47329D01*
X72341Y47908D01*
X73281Y48422D01*
X74256Y48867D01*
X75260Y49241D01*
X76288Y49543D01*
X77335Y49771D01*
X78396Y49924D01*
X79464Y50000D01*
X80536Y50000D01*
X81604Y49924D01*
X82665Y49771D01*
X83712Y49543D01*
X84740Y49241D01*
X85744Y48867D01*
X86719Y48422D01*
X87659Y47908D01*
X88560Y47329D01*
X89418Y46687D01*
X90228Y45985D01*
X90985Y45228D01*
X91687Y44418D01*
X92329Y43560D01*
X92908Y42659D01*
X93422Y41719D01*
X93867Y40744D01*
X94241Y39740D01*
X94543Y38712D01*
X94771Y37665D01*
X94924Y36604D01*
X95000Y35536D01*
X95000Y34464D01*
X135000Y34464D02*
X134924Y33396D01*
X134771Y32335D01*
X134543Y31288D01*
X134241Y30260D01*
X133867Y29256D01*
X133422Y28281D01*
X132908Y27341D01*
X132329Y26440D01*
X131687Y25582D01*
X130985Y24772D01*
X130228Y24015D01*
X129418Y23313D01*
X128560Y22671D01*
X127659Y22092D01*
X126719Y21578D01*
X125744Y21133D01*
X124740Y20759D01*
X123712Y20457D01*
X122665Y20229D01*
X121604Y20076D01*
X120536Y20000D01*
X119464Y20000D01*
X118396Y20076D01*
X117335Y20229D01*
X116288Y20457D01*
X115260Y20759D01*
X114256Y21133D01*
X113281Y21578D01*
X112341Y22092D01*
X111440Y22671D01*
X110582Y23313D01*
X109772Y24015D01*
X109015Y24772D01*
X108313Y25582D01*
X107671Y26440D01*
X107092Y27341D01*
X106578Y28281D01*
X106133Y29256D01*
X105759Y30260D01*
X105457Y31288D01*
X105229Y32335D01*
X105076Y33396D01*
X105000Y34464D01*
X105000Y35536D01*
X105076Y36604D01*
X105229Y37665D01*
X105457Y38712D01*
X105759Y39740D01*
X106133Y40744D01*
X106578Y41719D01*
X107092Y42659D01*
X107671Y43560D01*
X108313Y44418D01*
X109015Y45228D01*
X109772Y45985D01*
X110582Y46687D01*
X111440Y47329D01*
X112341Y47908D01*
X113281Y48422D01*
X114256Y48867D01*
X115260Y49241D01*
X116288Y49543D01*
X117335Y49771D01*
X118396Y49924D01*
X119464Y50000D01*
X120536Y50000D01*
X121604Y49924D01*
X122665Y49771D01*
X123712Y49543D01*
X124740Y49241D01*
X125744Y48867D01*
X126719Y48422D01*
X127659Y47908D01*
X128560Y47329D01*
X129418Y46687D01*
X130228Y45985D01*
X130985Y45228D01*
X131687Y44418D01*
X132329Y43560D01*
X132908Y42659D01*
X133422Y41719D01*
X133867Y40744D01*
X134241Y39740D01*
X134543Y38712D01*
X134771Y37665D01*
X134924Y36604D01*
X135000Y35536D01*
X135000Y34464D01*
X175000Y34464D02*
X174924Y33396D01*
X174771Y32335D01*
X174543Y31288D01*
X174241Y30260D01*
X173867Y29256D01*
X173422Y28281D01*
X172908Y27341D01*
X172329Y26440D01*
X171687Y25582D01*
X170985Y24772D01*
X170228Y24015D01*
X169418Y23313D01*
X168560Y22671D01*
X167659Y22092D01*
X166719Y21578D01*
X165744Y21133D01*
X164740Y20759D01*
X163712Y20457D01*
X162665Y20229D01*
X161604Y20076D01*
X160536Y20000D01*
X159464Y20000D01*
X158396Y20076D01*
X157335Y20229D01*
X156288Y20457D01*
X155260Y20759D01*
X154256Y21133D01*
X153281Y21578D01*
X152341Y22092D01*
X151440Y22671D01*
X150582Y23313D01*
X149772Y24015D01*
X149015Y24772D01*
X148313Y25582D01*
X147671Y26440D01*
X147092Y27341D01*
X146578Y28281D01*
X146133Y29256D01*
X145759Y30260D01*
X145457Y31288D01*
X145229Y32335D01*
X145076Y33396D01*
X145000Y34464D01*
X145000Y35536D01*
X145076Y36604D01*
X145229Y37665D01*
X145457Y38712D01*
X145759Y39740D01*
X146133Y40744D01*
X146578Y41719D01*
X147092Y42659D01*
X147671Y43560D01*
X148313Y44418D01*
X149015Y45228D01*
X149772Y45985D01*
X150582Y46687D01*
X151440Y47329D01*
X152341Y47908D01*
X153281Y48422D01*
X154256Y48867D01*
X155260Y49241D01*
X156288Y49543D01*
X157335Y49771D01*
X158396Y49924D01*
X159464Y50000D01*
X160536Y50000D01*
X161604Y49924D01*
X162665Y49771D01*
X163712Y49543D01*
X164740Y49241D01*
X165744Y48867D01*
X166719Y48422D01*
X167659Y47908D01*
X168560Y47329D01*
X169418Y46687D01*
X170228Y45985D01*
X170985Y45228D01*
X171687Y44418D01*
X172329Y43560D01*
X172908Y42659D01*
X173422Y41719D01*
X173867Y40744D01*
X174241Y39740D01*
X174543Y38712D01*
X174771Y37665D01*
X174924Y36604D01*
X175000Y35536D01*
X175000Y34464D01*
X215000Y34464D02*
X214924Y33396D01*
X214771Y32335D01*
X214543Y31288D01*
X214241Y30260D01*
X213867Y29256D01*
X213422Y28281D01*
X212908Y27341D01*
X212329Y26440D01*
X211687Y25582D01*
X210985Y24772D01*
X210228Y24015D01*
X209418Y23313D01*
X208560Y22671D01*
X207659Y22092D01*
X206719Y21578D01*
X205744Y21133D01*
X204740Y20759D01*
X203712Y20457D01*
X202665Y20229D01*
X201604Y20076D01*
X200536Y20000D01*
X199464Y20000D01*
X198396Y20076D01*
X197335Y20229D01*
X196288Y20457D01*
X195260Y20759D01*
X194256Y21133D01*
X193281Y21578D01*
X192341Y22092D01*
X191440Y22671D01*
X190582Y23313D01*
X189772Y24015D01*
X189015Y24772D01*
X188313Y25582D01*
X187671Y26440D01*
X187092Y27341D01*
X186578Y28281D01*
X186133Y29256D01*
X185759Y30260D01*
X185457Y31288D01*
X185229Y32335D01*
X185076Y33396D01*
X185000Y34464D01*
X185000Y35536D01*
X185076Y36604D01*
X185229Y37665D01*
X185457Y38712D01*
X185759Y39740D01*
X186133Y40744D01*
X186578Y41719D01*
X187092Y42659D01*
X187671Y43560D01*
X188313Y44418D01*
X189015Y45228D01*
X189772Y45985D01*
X190582Y46687D01*
X191440Y47329D01*
X192341Y47908D01*
X193281Y48422D01*
X194256Y48867D01*
X195260Y49241D01*
X196288Y49543D01*
X197335Y49771D01*
X198396Y49924D01*
X199464Y50000D01*
X200536Y50000D01*
X201604Y49924D01*
X202665Y49771D01*
X203712Y49543D01*
X204740Y49241D01*
X205744Y48867D01*
X206719Y48422D01*
X207659Y47908D01*
X208560Y47329D01*
X209418Y46687D01*
X210228Y45985D01*
X210985Y45228D01*
X211687Y44418D01*
X212329Y43560D01*
X212908Y42659D01*
X213422Y41719D01*
X213867Y40744D01*
X214241Y39740D01*
X214543Y38712D01*
X214771Y37665D01*
X214924Y36604D01*
X215000Y35536D01*
X215000Y34464D01*
M02*
