<?xml version="1.0" encoding="UTF-8" standalone="no"?>
<svg  version="1.1" xmlns="http://www.w3.org/2000/svg" width="333.242px" height="763.924px">
<path d="M69.47 97.2257 L69.9828 95.1521 L70.9435 93.2536 L72 91.9238 L74.0711 90.043 L75.384 88.5501 L76.564 86.7678 L77.5834 84.567 L78.2598 82.1159 L78.5094 79.8427 L78.3976 77.4305 L77.8571 74.9131 L56.4806 9.46436 L55.8738 8.02336 L54.6881 6.26681 L53.1406 4.81872 L46.01 0.855958 L44.4863 0.299649 L42.7466 0 L40.9899 0.0282655 L39.2607 0.38373 L37.6354 1.05071 L30.8964 4.82035 L29.0667 6.61695 L27.8327 8.7299 L6.26854 74.6397 L5.75013 76.7133 L5.53544 78.6791 L5.56933 80.5387 L5.80188 82.2334 L6.22437 83.8909 L6.83139 85.4901 L7.69184 87.1391 L8.74828 88.6699 L10.0685 90.1421 L12.2019 92.0988 L13.4437 93.8266 L14.0183 95.0511 L14.4341 96.4442 L14.7199 99.4782 L14.6075 101.566 L14.2595 103.605 L13.7346 105.435 L12.9496 107.348 L11.5207 109.757 L9.28888 112.108 L8.05902 113.71 L7.13924 115.29 L6.34916 117.16 L5.81684 119.12 L5.55188 121.133 L5.55906 123.163 L5.83826 125.174 L6.52493 127.511 L7.57796 129.707 L9.22557 132.008 L11.1228 133.841 L17.7635 144.907 L20.6293 150.696 L22.4764 155.665 L23.7976 160.542 L24.7059 165.723 L25.1227 170.758 L25.1636 187.994 L20.7551 439.333 L20.8043 452.442 L21.1181 455.741 L21.6561 458.719 L22.4407 461.676 L23.4494 464.529 L24.8041 467.535 L26.2827 470.195 L27.9605 472.713 L29.8345 475.089 L32.0851 477.498 L34.7596 479.883 L43.451 486.362 L63.9809 502.659 L83.4772 479.543 L76.1144 473.335 L73.9328 471.312 L71.1435 468.183 L68.5655 464.521 L66.3185 460.319 L64.5289 455.576 L63.4396 450.937 L62.9414 446.163 L62.9654 442.597 L63.2841 439.333 L58.8756 187.994 L58.9367 170.28 L59.363 165.494 L60.1929 160.762 L61.4144 156.137 L63.1152 151.401 L64.3813 148.541 L66.0332 145.338 L72.9165 133.841 L75.076 131.698 L76.7625 129.165 L77.5143 127.511 L78.0648 125.768 L78.3743 124.173 L78.5158 122.351 L78.4363 120.525 L78.181 118.921 L77.69 117.16 L76.9948 115.481 L75.3952 112.893 L72.1723 109.279 L71.1723 107.518 L70.3633 105.603 L69.7391 103.424 L69.412 101.383 L69.3212 99.2817 L69.47 97.2257 Z " stroke="black" stroke-width="1" fill="none" />

<circle cx="20.6397" cy="79.334" r="5.85826" stroke="black" stroke-width="1" fill="none" />


<circle cx="20.6397" cy="122.094" r="5.85826" stroke="black" stroke-width="1" fill="none" />


<circle cx="42.0205" cy="100.714" r="15.1181" stroke="black" stroke-width="1" fill="none" />


<path d="M56.0353 55.0551 L54.8903 56.6454 L53.3701 58.2719 L51.8606 59.5215 L50.0962 60.6474 L48.0991 61.58 L46.1032 62.2102 L44.165 62.5668 L41.953 62.6871 L39.9987 62.5441 L37.9352 62.1325 L35.8385 61.4175 L33.9727 60.4938 L32.3367 59.4152 L30.7447 58.0565 L29.2556 56.4013 L28.0723 54.6749 L32.7674 27.6847 L33.445 25.9222 L34.4548 24.3265 L35.7509 22.9651 L37.3025 21.874 L39.0302 21.1121 L40.9838 20.6906 L42.8635 20.6717 L44.7108 21.0197 L46.3716 21.6782 L48.0354 22.7543 L49.3225 24.0055 L50.4002 25.5561 L51.0488 26.9813 L51.4397 28.4009 L56.0353 55.0551 Z " stroke="black" stroke-width="1" fill="none" />

<circle cx="37.129" cy="445.368" r="6.00945" stroke="black" stroke-width="1" fill="none" />


<circle cx="41.8923" cy="405.036" r="6" stroke="black" stroke-width="1" fill="none" />


<circle cx="63.4002" cy="79.334" r="5.85826" stroke="black" stroke-width="1" fill="none" />


<circle cx="63.4002" cy="122.094" r="5.85826" stroke="black" stroke-width="1" fill="none" />


<circle cx="148.035" cy="124.17" r="5.85826" stroke="black" stroke-width="1" fill="none" />


<circle cx="148.035" cy="81.4094" r="5.85826" stroke="black" stroke-width="1" fill="none" />


<circle cx="126.527" cy="407.111" r="6" stroke="black" stroke-width="1" fill="none" />


<circle cx="121.764" cy="447.443" r="6.00945" stroke="black" stroke-width="1" fill="none" />


<path d="M140.67 57.1305 L139.526 58.7208 L138.005 60.3473 L136.496 61.5969 L134.731 62.7228 L132.734 63.6554 L130.738 64.2856 L128.8 64.6422 L126.588 64.7625 L124.634 64.6195 L122.57 64.2079 L120.474 63.4929 L118.608 62.5692 L116.972 61.4906 L115.38 60.1319 L113.891 58.4767 L112.707 56.7503 L117.403 29.7601 L118.08 27.9976 L119.09 26.4019 L120.386 25.0405 L121.938 23.9494 L123.665 23.1875 L125.619 22.766 L127.499 22.7471 L129.346 23.0951 L131.007 23.7536 L132.671 24.8297 L133.958 26.0809 L135.035 27.6315 L135.684 29.0567 L136.075 30.4763 L140.67 57.1305 Z " stroke="black" stroke-width="1" fill="none" />

<circle cx="126.656" cy="102.79" r="15.1181" stroke="black" stroke-width="1" fill="none" />


<circle cx="105.275" cy="124.17" r="5.85826" stroke="black" stroke-width="1" fill="none" />


<circle cx="105.275" cy="81.4094" r="5.85826" stroke="black" stroke-width="1" fill="none" />


<path d="M154.105 99.3011 L154.618 97.2275 L155.579 95.329 L156.635 93.9992 L158.706 92.1184 L160.019 90.6255 L161.199 88.8432 L162.219 86.6424 L162.895 84.1913 L163.145 81.9181 L163.033 79.5059 L162.492 76.9885 L141.116 11.5398 L140.509 10.0988 L139.323 8.34221 L137.776 6.89412 L130.645 2.93136 L129.121 2.37505 L127.382 2.0754 L125.625 2.10366 L123.896 2.45913 L122.271 3.12611 L115.532 6.89574 L113.702 8.69235 L112.468 10.8053 L90.9037 76.7151 L90.3853 78.7887 L90.1706 80.7545 L90.2045 82.6141 L90.437 84.3088 L90.8595 85.9663 L91.4665 87.5655 L92.327 89.2145 L93.3834 90.7453 L94.7037 92.2175 L96.837 94.1742 L98.0788 95.902 L98.6534 97.1265 L99.0693 98.5196 L99.3551 101.554 L99.2427 103.642 L98.8947 105.68 L98.3698 107.511 L97.5847 109.424 L96.1558 111.833 L93.924 114.184 L92.6942 115.786 L91.7744 117.365 L90.9843 119.236 L90.452 121.195 L90.187 123.208 L90.1942 125.238 L90.4734 127.25 L91.1601 129.587 L92.2131 131.783 L93.8607 134.084 L95.7579 135.917 L102.399 146.982 L105.264 152.771 L107.112 157.74 L108.433 162.617 L109.341 167.798 L109.758 172.834 L109.799 190.07 L105.39 441.408 L105.439 454.518 L105.753 457.816 L106.291 460.794 L107.076 463.752 L108.085 466.605 L109.439 469.61 L110.918 472.27 L112.596 474.788 L114.47 477.165 L116.72 479.573 L119.395 481.959 L128.086 488.438 L148.616 504.734 L168.112 481.618 L160.75 475.411 L158.568 473.387 L155.779 470.259 L153.201 466.597 L150.954 462.394 L149.164 457.651 L148.075 453.012 L147.577 448.239 L147.601 444.672 L147.919 441.408 L143.511 190.07 L143.572 172.355 L143.998 167.57 L144.828 162.838 L146.05 158.212 L147.75 153.476 L149.016 150.616 L150.668 147.413 L157.552 135.917 L159.711 133.773 L161.398 131.241 L162.149 129.586 L162.7 127.844 L163.01 126.249 L163.151 124.426 L163.071 122.601 L162.816 120.996 L162.325 119.235 L161.63 117.557 L160.03 114.968 L156.807 111.354 L155.807 109.594 L154.998 107.678 L154.374 105.5 L154.047 103.458 L153.956 101.357 L154.105 99.3011 Z " stroke="black" stroke-width="1" fill="none" />

<path d="M319.235 101.891 L319.747 99.8172 L320.708 97.9187 L321.764 96.5889 L323.836 94.7081 L325.148 93.2152 L326.328 91.4329 L327.348 89.2321 L328.024 86.781 L328.274 84.5078 L328.162 82.0956 L327.622 79.5782 L306.245 14.1295 L305.638 12.6885 L304.453 10.9319 L302.905 9.48383 L295.774 5.52107 L294.251 4.96476 L292.511 4.66511 L290.754 4.69337 L289.025 5.04884 L287.4 5.71582 L280.661 9.48546 L278.831 11.2821 L277.597 13.395 L256.033 79.3048 L255.515 81.3784 L255.3 83.3442 L255.334 85.2039 L255.566 86.8985 L255.989 88.556 L256.596 90.1552 L257.456 91.8042 L258.513 93.335 L259.833 94.8072 L261.966 96.764 L263.208 98.4917 L263.783 99.7162 L264.199 101.109 L264.484 104.143 L264.372 106.231 L264.024 108.27 L263.499 110.1 L262.714 112.013 L261.285 114.422 L259.053 116.773 L257.823 118.376 L256.904 119.955 L256.114 121.825 L255.581 123.785 L255.316 125.798 L255.324 127.828 L255.603 129.839 L256.289 132.176 L257.342 134.373 L258.99 136.673 L260.887 138.507 L267.528 149.572 L270.394 155.361 L272.241 160.33 L273.562 165.207 L274.47 170.388 L274.887 175.424 L274.928 192.659 L270.52 443.998 L270.569 457.107 L270.883 460.406 L271.421 463.384 L272.205 466.341 L273.214 469.195 L274.569 472.2 L276.047 474.86 L277.725 477.378 L279.599 479.754 L281.85 482.163 L284.524 484.548 L293.215 491.028 L313.745 507.324 L333.242 484.208 L325.879 478.001 L323.697 475.977 L320.908 472.849 L318.33 469.186 L316.083 464.984 L314.293 460.241 L313.204 455.602 L312.706 450.829 L312.73 447.262 L313.049 443.998 L308.64 192.659 L308.701 174.945 L309.127 170.16 L309.957 165.427 L311.179 160.802 L312.88 156.066 L314.146 153.206 L315.798 150.003 L322.681 138.507 L324.84 136.363 L326.527 133.83 L327.279 132.176 L327.829 130.433 L328.139 128.838 L328.28 127.016 L328.201 125.19 L327.945 123.586 L327.454 121.825 L326.759 120.146 L325.16 117.558 L321.937 113.944 L320.937 112.184 L320.128 110.268 L319.504 108.089 L319.176 106.048 L319.086 103.947 L319.235 101.891 Z " stroke="black" stroke-width="1" fill="none" />

<circle cx="270.404" cy="83.9991" r="5.85826" stroke="black" stroke-width="1" fill="none" />


<circle cx="270.404" cy="126.76" r="5.85826" stroke="black" stroke-width="1" fill="none" />


<circle cx="291.785" cy="105.379" r="15.1181" stroke="black" stroke-width="1" fill="none" />


<path d="M305.8 59.7202 L304.655 61.3105 L303.135 62.937 L301.625 64.1866 L299.861 65.3125 L297.864 66.2451 L295.868 66.8754 L293.93 67.2319 L291.717 67.3522 L289.763 67.2092 L287.7 66.7976 L285.603 66.0826 L283.737 65.1589 L282.101 64.0803 L280.509 62.7216 L279.02 61.0664 L277.837 59.34 L282.532 32.3498 L283.21 30.5873 L284.219 28.9917 L285.515 27.6302 L287.067 26.5391 L288.795 25.7772 L290.748 25.3557 L292.628 25.3369 L294.475 25.6848 L296.136 26.3433 L297.8 27.4194 L299.087 28.6706 L300.165 30.2212 L300.813 31.6464 L301.204 33.066 L305.8 59.7202 Z " stroke="black" stroke-width="1" fill="none" />

<circle cx="286.893" cy="450.033" r="6.00945" stroke="black" stroke-width="1" fill="none" />


<circle cx="291.657" cy="409.701" r="6" stroke="black" stroke-width="1" fill="none" />


<circle cx="313.165" cy="83.9991" r="5.85826" stroke="black" stroke-width="1" fill="none" />


<circle cx="313.165" cy="126.76" r="5.85826" stroke="black" stroke-width="1" fill="none" />


<circle cx="228.53" cy="124.684" r="5.85826" stroke="black" stroke-width="1" fill="none" />


<circle cx="228.53" cy="81.9237" r="5.85826" stroke="black" stroke-width="1" fill="none" />


<circle cx="207.022" cy="407.625" r="6" stroke="black" stroke-width="1" fill="none" />


<circle cx="202.258" cy="447.958" r="6.00945" stroke="black" stroke-width="1" fill="none" />


<path d="M221.165 57.6448 L220.02 59.2351 L218.499 60.8616 L216.99 62.1112 L215.226 63.2371 L213.228 64.1697 L211.233 64.8 L209.294 65.1565 L207.082 65.2768 L205.128 65.1338 L203.065 64.7222 L200.968 64.0072 L199.102 63.0835 L197.466 62.0049 L195.874 60.6462 L194.385 58.991 L193.202 57.2646 L197.897 30.2744 L198.574 28.5119 L199.584 26.9163 L200.88 25.5548 L202.432 24.4637 L204.16 23.7018 L206.113 23.2803 L207.993 23.2615 L209.84 23.6094 L211.501 24.2679 L213.165 25.3441 L214.452 26.5952 L215.529 28.1458 L216.178 29.571 L216.569 30.9906 L221.165 57.6448 Z " stroke="black" stroke-width="1" fill="none" />

<circle cx="207.15" cy="103.304" r="15.1181" stroke="black" stroke-width="1" fill="none" />


<circle cx="185.769" cy="124.684" r="5.85826" stroke="black" stroke-width="1" fill="none" />


<circle cx="185.769" cy="81.9237" r="5.85826" stroke="black" stroke-width="1" fill="none" />


<path d="M234.599 99.8154 L235.112 97.7418 L236.073 95.8433 L237.129 94.5135 L239.2 92.6327 L240.513 91.1398 L241.693 89.3575 L242.713 87.1567 L243.389 84.7056 L243.639 82.4324 L243.527 80.0202 L242.986 77.5028 L221.61 12.0541 L221.003 10.6131 L219.817 8.85652 L218.27 7.40843 L211.139 3.44567 L209.616 2.88936 L207.876 2.58971 L206.119 2.61798 L204.39 2.97344 L202.765 3.64042 L196.026 7.41006 L194.196 9.20666 L192.962 11.3196 L171.398 77.2294 L170.879 79.303 L170.665 81.2688 L170.699 83.1285 L170.931 84.8231 L171.354 86.4806 L171.961 88.0798 L172.821 89.7288 L173.878 91.2596 L175.198 92.7318 L177.331 94.6886 L178.573 96.4163 L179.148 97.6408 L179.563 99.034 L179.849 102.068 L179.737 104.156 L179.389 106.194 L178.864 108.025 L178.079 109.938 L176.65 112.347 L174.418 114.698 L173.188 116.3 L172.269 117.879 L171.478 119.75 L170.946 121.709 L170.681 123.722 L170.688 125.753 L170.968 127.764 L171.654 130.101 L172.707 132.297 L174.355 134.598 L176.252 136.431 L182.893 147.496 L185.759 153.286 L187.606 158.255 L188.927 163.132 L189.835 168.312 L190.252 173.348 L190.293 190.584 L185.884 441.923 L185.934 455.032 L186.247 458.33 L186.785 461.308 L187.57 464.266 L188.579 467.119 L189.933 470.125 L191.412 472.784 L193.09 475.303 L194.964 477.679 L197.214 480.088 L199.889 482.473 L208.58 488.952 L229.11 505.248 L248.607 482.133 L241.244 475.925 L239.062 473.902 L236.273 470.773 L233.695 467.111 L231.448 462.909 L229.658 458.166 L228.569 453.526 L228.071 448.753 L228.095 445.187 L228.413 441.923 L224.005 190.584 L224.066 172.87 L224.492 168.084 L225.322 163.352 L226.544 158.727 L228.245 153.991 L229.511 151.131 L231.163 147.928 L238.046 136.431 L240.205 134.288 L241.892 131.755 L242.644 130.101 L243.194 128.358 L243.504 126.763 L243.645 124.941 L243.566 123.115 L243.31 121.51 L242.819 119.75 L242.124 118.071 L240.525 115.483 L237.302 111.868 L236.302 110.108 L235.493 108.193 L234.868 106.014 L234.541 103.972 L234.45 101.871 L234.599 99.8154 Z " stroke="black" stroke-width="1" fill="none" />

</svg>
